<?xml version="1.0" encoding="utf-8"?>
<!-- Generator: Adobe Illustrator 23.1.1, SVG Export Plug-In . SVG Version: 6.00 Build 0)  -->
<svg version="1.2" baseProfile="tiny" id="Layer_1" xmlns="http://www.w3.org/2000/svg" xmlns:xlink="http://www.w3.org/1999/xlink"
	 x="0px" y="0px" viewBox="0 0 196 149.9" xml:space="preserve">
<path fill="none" stroke="#FF0000" stroke-miterlimit="10" d="M12,122.1c0.1,0.8,0.1,1.6,0.4,1.6c-0.7,1.6,0.3,4-0.1,4.7
	c0.1,0,0.2,0,0.4,0c-0.5,2.4,0.4,3.2,0.1,5.5c3.6,4.7,4.3,7.9,5.8,4c-8.4-11.1,4.6-4,5-5.5c-1.2,0-2.4-0.8-3.2-2.4
	c0.3-1.6,0.8,0,1.2,0c-0.2-0.8-0.5-1.6-0.6-1.6c3.1,2.4,2.8-0.8,3.2,0.8c-0.1,0-0.3,0-0.4,0.8c0.2,0,0.3,0.8,0.4,0.8
	c-0.1,0.8-0.3,0.8-0.6,0.8c0.3,1.6-0.4,1.6-0.7,2.4c0.1,0.8,0.8-0.8,0.6-0.8c0.2,0,0.4,0,0.2,0H24c0.1,0,0.3,0.8,0.1,2.4
	c3.5,4.7,3,4,4.2,5.5c1.8,4.7,3,4,3.6,2.4c1.2-1.6,3.1-2.4,4.5-2.4c-0.1,0.8-0.1,1.6-0.4,1.6c0.3,0.8,0,1.6,0,2.4
	c0.2,0,0.5-0.8,0.8-0.8c-0.1,0-0.2-0.8,0.1-0.8c-0.1-0.8-0.2-0.8-0.3-0.8c0.7-0.8,1,0.8,1.1-0.8c0.5-0.8,0.5,1.6,0.4,0.8
	c0.2,0,1,0,1.4,0.8c-0.4-0.8,0.8,0,0.2-0.8c3,0,5.8-4.7,5.4-2.4c1.9-1.6,1.9,0,2.3,0c0.1,0,0.1-0.8,0.2-0.8l0,0l0,0
	c0.5-1.6,0.3,0,0,0l0,0c2.7,0,2,1.6,2.7,0c0.5,0,0.6,0.8,1.1,0.8c-0.2-0.8-0.6-0.8-0.7-1.6c1.4-3.2,1.1,1.6,1.4-0.8
	c0.2,0,0.3,0,0.3-0.8c0.2,0,0.5,0.8,0.8,0.8c-0.1,0.8-0.3,0-0.5,0c0.1,1.6,0.8,0.8,1.2,1.6c-0.2-0.8-0.4-1.6-0.7-1.6
	c0.2,0,0.4,0,0.7,0c1.7-1.6,2.4,0,2.6,0c0,0.8,0.6,0,0.8,0.8c0,0,0,0-0.1,0c3.1,0.8,3.7,1.6,4.9,0c0.9,0,0.7,0.8,0.6,0.8
	c0,0.8,0.5-0.8,0.2-0.8c0.2,0,0.4,0,0.5,0c-0.5,0-0.6,0-0.7-0.8c-0.4-0.8-1.2,0.8-1.4-0.8c1.2-1.6,1,0,1.2-0.8c-1.2-1.6-3,0-3.9-0.8
	c2-1.6,1.4-3.2,2.2-1.6c2-1.6,2.9,0.8,2.6-1.6c1.6,1.6,1.1,0,1.8,0.8c0.1-0.8,0.6-0.8,0.4-1.6c0.4,0,0.7,0.8,1.1,0.8l-0.2-0.8
	c0.7,0.8,1.4,0,2,0.8c2.8-1.6,3.4,0,4.3,0c-0.1-0.8-0.3-0.8-0.6-0.8c2.7-0.8,3.1,0,3.8-0.8c-0.4,0-0.9,0.8-1.1,0
	c0.3-1.6,1-0.8,1.2-2.4c-1.2,0-1.2,0-0.9,0.8c0,0.8-0.2,0.8-0.2,0.8c-3.9,0.8-4.9-1.6-6.8-0.8c0,0,0.3,0,0.3,0.8
	c-1.2-2.4-2.9,1.6-2.1-0.8c-2.4,1.6-2.9,0.8-4,1.6c-1.2-2.4-1-0.8-0.7-0.8c-0.4,0.8-0.9,0.8-1.6,0c1.1-0.8,0.5-0.8,0.5-2.4
	c-0.8,0-0.5-1.6-0.9-0.8c0.1-0.8,0.2-0.8,0.4-0.8c-0.2-0.8-0.7-0.8-1.2-0.8c0.1-1.6,0.4,0.8,0.9,0l-0.2-0.8c3-2.4,2.3-2.4,3.9-3.2
	c-0.3,0-0.7,0-0.7-0.8c-0.2,0-0.3,0,0,0l0,0c0.4,0,1.4-0.8,1.3,0c-0.1,0.8-0.3,0-0.5,0c0.1,0,0.1,0,0.1,0.8c2.2-4,2.2,0.8,2.9-1.6
	c0.3-0.8,0.3,0,0.6,0c-0.1,0.8-0.2,0.8-0.3,0.8c4.3,0,2.9-0.8,4,0c2.2-4,2,0,2.5-0.8c-1.3,1.6,1.3,0,0.5-0.8c0.4,0.8,0.7,0.8,1,0.8
	c-0.2,0.8-0.5,0-0.5,0.8c-3,0.8-2.4,0.8-3.7,0c-1.3,0.8-0.9,0.8-1,4.7c1.6,3.2,1.4,0,1.9,0.8c-0.4-1.6,1.2-0.8,0.9,0
	c1.1-2.4,2.3-0.8,1.9-0.8c5.1,0.8,3.5-0.8,5.9-0.8c1-2.4,0.7,0.8,1.1-0.8c-0.8,0-1.2-0.8-2.2-0.8c0.4-1.6,1.2,0,1.5-1.6
	c1.1,0,1.6,1.6,1.7,0c-2.3-0.8-1.2,0-2.2-1.6c3.5,0.8,3.6-0.8,4.8,0.8c3-1.6,2.3,1.6,2.6,0c-1.2-1.6-2.1,0-2.9-1.6
	c0-0.8,0.7,0,0.4-0.8c6.5,1.6,8.5,0,11,0c0,0-0.2,0-0.3,0c0,0,0.1,0,0.2,0c2-0.8,7,0,7.6,0.8c0.3,0,1.4-1.6,1.9,0l-0.2-0.8
	c0.7,0.8,0.6,1.6,0.6,0c2.5,0,1.4,0,2.4,1.6c-0.1,0-0.1-0.8-0.2-0.8c0-0.8,0.3,0,0.3-0.8c6,2.4,4.8-0.8,5.9,0
	c1.2-2.4,0.7,0.8,1.5-1.6c-0.3,0.8-0.2,0-0.7,0c1.3,0,1.1,0,0.7,0.8c1.9,0.8,2-2.4,2.4,0.8c-0.6,0-1.5-0.8-2,0.8
	c4.1,2.4,4.8,1.6,5.2,0.8c-0.1,0-0.1,0-0.2,0c-0.1,0-0.1,0.8-0.3,0c0.1,0,0.2,0,0.3,0s0.1,0,0.2,0l0,0c0.2,0,0.2,0,0.2,0.8
	c3,0.8,4.7,1.6,5.4,0c3.4,0,5,0,5.7,1.6c1.4,0,0.2-0.8,0.8-1.6c-0.2,0-0.6,1.6-1.1,0.8c0.1-0.8,0.4-0.8,0.6-0.8
	c-0.1-0.8-0.4,0-0.6,0c0.3-0.8,0.9-0.8,1.4-0.8c-5.4,0.8-6.1-1.6-8.6,0c-0.8-2.4-0.8-1.6-1.1-0.8c-1.8-0.8-3-0.8-3.5-0.8
	c3.5-1.6,3.2,1.6,3.2-2.4c4.6,0.8,4.7-0.8,4.3-0.8c0.4,0,0.9-0.8,1.6,0c-0.1,0-0.5,0-0.7,0c0.1,1.6,0.7,0.8,1.2,0.8
	c-0.1-0.8-0.2-0.8-0.4-0.8c2.1-0.8,1.6-1.6,2.3,0c1.4,0,1.1,0,1.9,0c-0.5-0.8-1.1,0-1.9-0.8c0.4-1.6,0.9-1.6,1.3-0.8
	c2.4-0.8,4-3.2,5.2-1.6c0.5-0.8,3.9,0,4.5-0.8c4.2,0.8,5.4,0,6.2,0c0,0-0.1,0-0.2,0c2.7,0,5.3-0.8,7.6,0c-0.5-1.6,1.2,0,0.6,0
	c2.1-0.8,4.7,1.6,5.4-0.8c2.7,0,1.8,2.4,2.7,0c1.9,0.8,2.3-0.8,2.7,0c0.8-1.6,1.2-0.8,1.3-0.8c0,0-0.1,0-0.2-0.8
	c2.8-1.6,3.9,0,2.9-1.6c9,2.4,8.5-4,11.7-1.6c0,0-0.2,0-0.3,0c0.6,0.8,1.5,0,2.2,0c-1.9-0.8-1.2,0-1.9-0.8c2.4-0.8,6.1-1.6,7.1-2.4
	c-0.3,0-0.1-0.8,0.2-0.8c-0.7,0-0.5,0.8-1.2,0c0.2,0,0.2-0.8,0.6-0.8c-0.5,0.8,0,0.8,0.4,0.8c-2-3.2-2.9-0.8-3.4-2.4
	c1.8-0.8,0.5,0.8,1.3,0.8c0.5-2.4-0.5-1.6-0.4-1.6c1.8-0.8,1.1,0,0.6-0.8c0.2-1.6,0.6,0,1-0.8c-2.4-0.8-2.4-1.6-3.4-2.4l0.2,0.8
	c-0.6,0-0.8-1.6-1-2.4c0.2,0,0.4,0.8,0.6,0c-1.4-4.7-2.5-1.6-2.1-3.2c-3.7-1.6-3.1-0.8-3.8-1.6c1.9-0.8,0.8,0,0.4-2.4
	c0.5-0.8,1.1,0.8,1.5,0c-4-3.2-3.6,0-3.4-0.8c-0.3,0-1.3,1.6-1.3-0.8c-1.8,0-3.3-0.8-5.4-1.6c0,0,0.4,0,0.6,0c-0.7,0-3.8,0.8-4-1.6
	c-0.6,0.8-1.1-0.8-1.7,0c0.1-2.4,1.3-0.8,1.9-1.6c-3.2-1.6-4.4-0.8-5.7-0.8c0,0,0.1-0.8,0.3-0.8c-1.9,0.8-2.8,0.8-3.2,0
	c-8.6,1.6-10.1,2.4-11.9,0c-5.6-0.8-6.2,0-7.8-0.8c0.3-2.4,2.1,0,2.2-1.6c-0.5,0.8-0.9,0-1.3,0c0.2-0.8,0.9,0,1.1,0v-0.8
	c0.1,0,0.3,0,0.6,0c0.4,3.2,1.3,0.8,1,0.8c1,1.6,0.6-0.8,1.1,0c0.4,2.4,1.3-0.8,1.3,0.8c0-0.8,0.2-0.8,0.3-0.8l0,0
	c6.2,0,10.6-0.8,14.3,0.8c4-1.6,5,0.8,6.2,0c-0.1-0.8,0.5,0,0.5-0.8c3.4,1.6,6.7,0.8,10,0.8c-6.4-1.6-11.4,0-14.5-1.6
	c-0.5,0.8-1.3,0-1.9-0.8v0.8c-0.8-0.8-1.8-0.8-2.6,0c0.1-0.8,0.2-0.8,0.2-1.6c-3.4,3.2-5.3,0.8-5.2,1.6c-5.3-0.8-10.3-0.8-13.2-2.4
	c-1.7,1.6-3.9,0-5.4-0.8v0.8c-1.3-1.6-3.3-1.6-4.7-0.8c0,0,0.1,0,0.2,0c-2.3,0-1.7,0-2.3,0c-5.7-2.4-5.8-1.6-6.7-2.4
	c4.8-3.2,5.4,0,7.6-0.8c-2.1-1.6-1.8-1.6-2.8-1.6c1.8-0.8,0.9,0.8,1.7-0.8c-0.6,0-1.3,0-2.1-0.8c0.1-0.8,1-0.8,1.4,0l-0.2-0.8
	c0.5,0,0.4,0.8,0.8,0.8c-0.2-0.8-0.5-1.6-0.9-1.6c1.9,1.6,1.7,0,2.8,0c-1.9-0.8-1.8,0-2.3-0.8c-0.8,0-0.6,1.6-1.9,0.8
	c2.2-2.4,2.5-0.8,2.8-1.6c-0.6,0-1.2-0.8-1.8-0.8c-0.1,0-0.2,0-0.3,0c0.9,1.6-0.8,0-0.3,0c-1.8,0-1-1.6-1.8-0.8
	c0-0.8,0.3-0.8,0.3-0.8s-0.1,0-0.2,0c0.2,0,0.2,0,0.2,0c0.7,0,1.4,0.8,2.1,0.8c0.7,0,1.4,0.8,1.8,0.8c-0.1,0-0.1,0-0.1,0
	c7.5,2.4,15.2,0,21.2,1.6c0-0.8-0.8-1.6-0.1-1.6c0.1-4.7,2.3,0,2.1-2.4c0.5,0,0.8,0,1.1,0c0,0,0.1,0,0.2-0.8c-0.8-0.8-0.5,0-0.7-1.6
	c5.3,0.8,13.3,3.2,10.6-2.4c0.7-4,1.4,1.6,1.2-1.6c0.9,0,1.4-1.6,2-1.6c-2.7,2.4-2.4,0-1.5-1.6c-2.2-1.6-2.3,1.6-2.9-1.6
	c-6.7-1.6-12.4-4-16.3-4c4-1.6,6.3,0.8,8.4-0.8c-2.1-0.8-1.7-1.6-2.8-2.4v0.8c-0.7-0.8-0.5,0-0.5-1.6c-1.8-0.8-1.4,1.6-1.8,0
	c-1.3-0.8-0.6,0-0.8-1.6c0.7,0,1.2-0.8,2.2-3.2c-0.1-0.8-1.3,0-1.5-0.8c0.6-0.8,1.5,0,2.2,0c-0.2-0.8-0.5-0.8-0.9-0.8
	c0,0,0.1,0,0.2,0c0,0-0.2,0-0.3,0c0.9,0,1.1-0.8,2.1-0.8c-0.1-2.4,1,0,1.1-1.6c-2.8-0.8-3.3,0-4.1-0.8c-5.2-2.4-7.4,2.4-10.8,0
	l0.2,0.8c-6.5-4-3.8-4.7-5.9-3.2c-0.4,0-0.7,0-1.3,0c0.6-3.2,0.6,0.8,0.9-0.8c-1.2-2.4-1.1-1.6-0.8-0.8c0,1.6-0.8,1.6-1.1,0.8
	c0,0,0.2,0,0.3,0c-0.2-0.8-0.2-1.6-0.5-1.6c-0.9,4-1.5,1.6-1.7,1.6c1.8-0.8-0.4-0.8-0.2-1.6c-1.6,0-3.5,0.8-3.2,0
	c-0.1-0.8-1,1.6-1.3,0c-0.2,0.8-0.4-0.8-0.4,0.8c-0.3-0.8-0.6-0.8-0.9-1.6c0,0-0.1,0.8-0.5,0.8c0.5-0.8-0.5-0.8-0.5,0
	c-0.1,0-0.5-0.8-0.2-0.8c-0.7,0-1.3,0-1.7,0l0,0c0.1,0,0.3,0,0.3,0c-0.2,0.8-0.3,0-0.4,0c-1.4-0.8-1.1-0.8-1.9-1.6c0.5,0,1.2,0,2,0
	c0,0.8-0.6,0-0.6,0.8c0.2-0.8,0.3,0,0.4,0s0.1,0,0.2,0c0.2-0.8,0.8-1.6,1.5-1.6c-2.5,0-2.2,0-2.9-2.4c-1.9-1.6-3.9,0.8-4.5-0.8
	c0,0,0.3,0,0.4,0c-0.3,0-0.2,0-0.3-0.8c0,0-0.5,0-0.2,0c-0.3,0-0.8,1.6-1.1,0.8c0.1,1.6-0.2,0.8-0.3,0.8c0.1-0.8,0.1-0.8,0.2-0.8
	c-3.4-0.8-4.2,0.8-4.6,0c-2.4,0.8-3.7-0.8-3.9,0.8c-1.2-3.2-1.9,0.8-1.8-2.4c-0.5,1.6-1.4,0-1.3,0.8c-0.6-1.6-0.4,0-0.7-1.6
	c-0.2,0,0,0.8,0,0.8c-0.7-0.8-1.6,0-2.3-0.8c0.1,0.8,0.1,0.8-0.1,0.8c0-0.8-0.6-0.8-0.3-1.6c-0.8-0.8-0.5,0-0.7-1.6
	c0.5,0,1.2,0,0.9,3.2c2-0.8,1,1.6,2,0.8c-0.9-1.6,4-0.8,2.8,0c2.5-0.8,1.5-1.6,2.9-0.8c-0.4,0.8-0.6,0.8-1.1,0.8
	c0.4,0.8,1.1-0.8,1.5,0c-0.1-0.8-0.1-0.8-0.3-0.8c0.9-0.8,1-0.8,1.3-0.8l0,0c10.3,1.6,13,1.6,15,1.6c-0.2-0.8,2.9,1.6,3.1,0.8
	c-0.6-1.6,0.5,1.6,0.5,0c0-0.8-0.2-0.8-0.4-0.8c0.4-0.8,1,0.8,1.2,0c0,0.8,0,0.8-0.1,0.8c2.1,0,2.3-0.8,2.9,1.6
	c-0.3-1.6,1.6-0.8,2.1-0.8c-0.1-1.6-1.1-0.8-1.2-1.6c6.9,3.2,6.7,0,9.4,1.6c1,0,1.5,0,1.7,0c0.3-1.6,1-1.6,1.5-1.6
	c-0.1-0.8-0.6-0.8-0.6-1.6c-0.7,0.8-1.2,0-2.1,0c-5,0-3.6-0.8-6.6-0.8c-2.2,1.6-3.6,0-5.4,0c0.1,0,0.2,0.8,0.2,0.8
	c-0.4,0-0.8-0.8-1.1-1.6c0,0-1.1,0.8-1.2-0.8c-2.5,1.6-3.6-1.6-4.8,0.8c-0.1-0.8-0.3-0.8-0.3,0c-0.2-0.8-0.7,0-0.7-0.8
	c-8.2-0.8-8.5-0.8-10.9-3.2c0.5-2.4-5.1-2.4-6.2-2.4c-0.6-0.8-1.7-0.8-1.8,0.8c-0.2-1.6-0.7,0-1.2-0.8c0.1,2.4-1,1.6-1.4,0.8
	c0.3-1.6,0.9-0.8,1.3-0.8c-2.6-1.6-4.3-0.8-4.7-1.6c-1.9,0-5.3-3.2-6.5-1.6c0.5,0.8-0.1,0.8-0.4,0.8c0.1,0,0.3,0,0.2,0.8
	c0.5,0,0.8-0.8,0.8,0.8c0.4-1.6,0.8,0.8,1.4,0.8c-1.2,0-1,0-1.5,0c0,0.8,0.3,0.8,0.4,0.8c-0.2,0.8-0.7,0-0.9,0c0,0,0.1,0,0.2,0
	c-0.2-0.8-0.9-0.8-0.6,0c-0.9-1.6-0.7,0-0.7,0c-0.2,0-0.2-0.8,0-0.8c-0.3,0-0.4,0.8-0.9,0.8c0.6-1.6-0.6,0.8-0.8,0
	c0.1,0,0.1-0.8,0.1-0.8c-2.5,0.8-2,0-2.7-0.8c-0.4,2.4-0.5,0-0.6,0.8c0.1-0.8,0.2-0.8,0.3-0.8c-0.1,0-0.4,0.8-0.6,0
	c-0.4,4.7-2.7-3.2-3.5-1.6c-0.3,0.8-1.5,0.8-1.9,0c-0.4,1.6-1.2,0.8-1.1,1.6c-0.3-1.6-0.5,0-0.3,0.8c-0.9-0.8-2.5-1.6-2.1,0
	c-0.3-1.6-0.5,1.6-0.5,0.8c0.4,0,0.3,0.8,0.7,0.8c-0.5,0.8-0.9,0-1.5,0c0.1-0.8,0.3-0.8,0.7-0.8c-0.2-0.8-0.4-0.8-0.7-0.8
	c0,0-0.1,0-0.1,0.8c-1.8,0-3.1-0.8-3.9-1.6c0.4,0.8,0.2,0.8,0.6,1.6h-0.2c0.1,2.4-1,1.6-1.6,0.8c0.2,0.8,0.6,1.6,0.9,1.6
	c-0.2,0-0.8,0.8-0.7-0.8c-1,0-1.4,1.6-2,0.8c-2.5,1.6-3.7-1.6-4.9,0c0.2,0.8,0.3,0,0.5,0C60.4,13,59.7,13,59.3,13
	c-2.3-0.8-2,0.8-2-0.8c-0.3-1.6-0.7,0-1.2-0.8c-3.8,2.4-6.3-2.4-8.2,0.8c-1.5-2.4-1.9-4-2.3-3.2c0.1,1.6,0.6,0.8,0.9,1.6
	c-0.4,0.8-0.9,1.6-1.3,0.8c0.1,0,0.1,0.8,0.1,0.8c-4.1-2.4-5.4-0.8-6.9-1.6c-2.1,0.8-3.5,0-5.5,0.8c0,0,0.2,0,0.3,0
	c-0.1,0.8-0.3,0-0.5,0c0-0.8,0.1-0.8,0.2-0.8c-1.5,0-0.5,1.6-1.5,0.8c0.6,3.2,0,0.8-0.2,0.8c-1.3,2.4-0.3,2.4-0.2,3.2
	c-2.7-0.8-5-2.4-4.9-1.6c0.1,0.8,0.4,0.8,0.5,0.8c0,0-0.2,0-0.2,0.8c-3.3,0.8-4.9,0-6,0.8c6.3,0,11.9-2.4,14.6-0.8
	c-0.3-1.6,1.1-0.8,1.4-0.8c0,0.8-0.4,0.8-0.7,0.8c1,1.6,2.3-0.8,3.5,0c0-0.8,0.3,0,0.3-0.8c5.4,0.8,3.9,0,6.3,0.8
	c-0.1,0-0.1,0-0.1,0.8c-0.7,0-0.5,0-0.9,0c0.2,0,0.5,0,0.6-0.8c-1,0-0.5,0.8-1.2,1.6c0.2,0,0.3,0.8,0.6,0.8c0,1.6-2.2,0.8-1.2,0.8
	c-0.3-0.8-1.2,0-1-0.8c-1.8,1.6-1.8-0.8-2.3-0.8v0.8c-0.3,0-0.8-1.6-0.9,0c1.1,1.6-5.6,0.8-5.9,0.8v0.8c-0.3-0.8-0.6,0-1,0
	c0.5,0,0.2,0.8,0.8,0.8c-0.5,0-1.1,0-1.5,0.8c0-0.8,0-0.8,0.1-0.8c-1.5,1.6-1.4,0-1.3,0c-0.7,0-1.4,0-2.2,0c0,0.8,0.4,0.8,0.2,1.6
	c2.1,0,1.2-0.8,2.2,0c-2.3,0-2.5,0-1.9,1.6c0.1,0,0.2-0.8,0.2-0.8c0.2,0,0.9,0,0.2,1.6c2.2-0.8,3.4,1.6,3.9,0.8
	c0-0.8-0.1-0.8-0.1-0.8c1.2,1.6,0.7-0.8,1.2,1.6c0.6,0,1.7,0,2.4,0.8c2.2-1.6,2.5,0,3.6,0l-0.1-0.8c3.1,0.8,7.7-1.6,7.1,3.2
	c1.8,1.6,1.3,1.6,0.7,1.6c-6.2-0.8-6.6-0.8-8.6,0c-3,3.2-6.3-1.6-7.3,0.8c-0.2,0-0.3,0-0.3-0.8c-0.4,0.8-1.6,0-1.5,1.6
	c-0.2,0-0.3-0.8-0.7-0.8c0.1,0.8,0,0.8,0,1.6c0.4,0,0.4,0,0.6,0.8c-1.5,1.6-1.5,1.6-1.6,0c-3.1,3.2-3.3,0.8-3.4,3.2c0-1.6,0,0-0.2,0
	c0.8,0,1.3-2.4,2-0.8c3.6-2.4,2.4-1.6,3.4-1.6c-0.1,0,0.1,0,0.1-0.8c6.2-2.4,6-0.8,8.1-0.8c-0.1,1.6-0.4,2.4,0.1,4
	c0,0.8-0.1,0.8-0.1,0.8c-0.3-0.8-0.8-0.8-1,0c0.5,0,0.9,0.8,1.4,0.8c0,0.8,0.3,0.8,0.6,1.6c-0.1,0-0.4,0.8-0.6,0.8
	c0.5,0.8,0.7,0,1,0.8c-2.4-0.8-3.3,1.6-3.3,0c-2.5,0.8-2,0-2.7-0.8c1.2-1.6,1-1.6,0.8-2.4c-0.1,0.8-0.1,0.8-0.2,0.8l0,0l0,0
	c-0.6,1.6-0.3,1.6-0.8,0.8c0.2-0.8,0.4-0.8,0.8-0.8l0,0c-1.3,0,0.2-1.6,0.4-1.6c-5.1-0.8-4.5,4-2.6,4.7c-2.2,0-1.7-1.6-1.6,0.8
	c0.3,0,0.6,0,0.7,0.8c-0.2,0-0.8,0.8-0.8-0.8c-0.5,0.8-0.9,0.8-1.3,0.8c0,0.8,0.3,0.8,0.4,1.6c-0.1,0.8-0.2,0.8-0.4,0.8
	c0.4,0,0.4,0.8,0.7,1.6c-0.5,2.4,0.1,0.8-0.7,1.6c-2.4,1.6-1.7,0.8-2-2.4c-2,0.8-1.7,0-2.5,0c0.2,1.6-1.2-2.4-2.2-1.6
	c2.9-1.6,3.9,0,4.9-0.8c-5.9-2.4-17.7-6.3-12.6,0c-2.3,3.2-2.6,2.4-3.5,4c0.1,0.8,0.3,1.6,0.6,1.6c-0.4,0-0.7,0.8-1.5,0.8
	c0.4,0-0.1,0.8,0.1,0.8c0.1,0,0.1,0,0.2,0c-0.1,0-0.2,0-0.2,0c-1.3-0.8-1.2,0-1.5,1.6c-0.5-0.8-0.2,0-0.3,0.8c0.6,0,0.7-2.4,1.4-2.4
	c-0.8,0.8-0.4,0.8-0.2,1.6c-2.2,4-1.6,0-2.3,4.7c0.1,0,0.3,0,0.4,0c-0.2,0-0.3,0.8,0.1,0.8c-0.2,1.6-0.6,2.4-0.9,3.2
	c-1.6,7.1,1.1,5.5,0.9,7.1c3.5,4,2.4,7.1,4.1,4.7c1.3,0.8,2-3.2,3.5-1.6c-0.4,1.6-1.5,1.6-1.6,4c0.9,0.8-0.5,1.6,0.4,1.6
	c-0.3,1.6,0.7,1.6,0.5,4c0.4,0,0.7,0,0.7,0.8c3.5,0,2.2-4,3.7-4c-0.1-0.8-0.2-0.8-0.3-0.8c3.7-4,3.1-1.6,3.2-0.8
	c-0.5-0.8-0.5,0.8-0.6,0.8c0.5,0,0.1,0.8,0.3,1.6c-1.1-3.2-1.1,1.6-0.9,0.8c-0.1,0-0.1,0.8-0.1,0.8c-0.2,0-0.1,0-0.4,0l-0.1,0.8
	c0.2,0.8-0.1,1.6-0.6,1.6c0.3,1.6-0.2,2.4-0.5,2.4c0.1,0,0.2,0,0.3,0c-2.1,2.4-3,7.9-2,7.9c-1.6,5.5-0.8,3.2-1.5,6.3
	c0,0.8,0.2,0.8,0.4,0.8c0,0.8-0.2,0.8-0.4,0.8c0.3,0.8-0.4,2.4-0.2,3.2C11.6,116.5,13.3,121.3,12,122.1z"/>
</svg>
