<?xml version="1.0" encoding="utf-8"?>
<!-- Generator: Adobe Illustrator 23.1.1, SVG Export Plug-In . SVG Version: 6.00 Build 0)  -->
<svg version="1.2" baseProfile="tiny" id="Layer_1" xmlns="http://www.w3.org/2000/svg" xmlns:xlink="http://www.w3.org/1999/xlink"
	 x="0px" y="0px" viewBox="0 0 187.7 23.5" xml:space="preserve">
<path fill="#FF4200" d="M176.2,15.4c0.2-0.1-0.5-0.3-0.2-0.4c-0.2,0-0.4,0-0.4-0.1c0.2,0,0.4,0,0.4-0.1c-0.7-0.4,0.1-0.1-1.5-0.8
	c1,0,0.1-0.7-2-1c0.1,0,0.2,0,0.3,0c-0.3,0-0.8-0.1-0.5-0.3c-0.5,0-0.8-0.1-0.6-0.2c0,0-0.1-0.1-0.1-0.1c-0.3,0-0.2,0-0.4,0
	c0,0,0-0.1-0.1-0.1c0.2,0.1,0.2-0.5-0.9-0.1c0.2-0.1-0.2-0.2,0.3-0.2c-0.1,0-0.1-0.2-0.6-0.1c0.1-0.1-0.5-0.4,3.2,0.1
	c-0.1,0-0.2,0-0.3,0.1c1.5,0,0.2,0.5,3.7,0.5c0-0.1,0.3-0.1,0.7-0.1c-0.2-0.3,0.8-0.3,0.5-0.5c0.9,0-0.5-0.1,0.4-0.2
	c-0.1-0.3-1.2-0.3-1.6-0.5c1.5-0.2,2.2,0.3,3.5,0.2c1.7,0.3,0.6-0.1,4.1-0.6c-0.2-0.2,2.5,0,0.9-0.9c-0.3-0.1-0.7-0.2-0.9-0.4
	c0.4,0,0.3-0.1,0.1-0.1c0.1,0,0.3,0,0.4,0c-0.7-0.6-0.1-0.1-2.3-0.6c0.2-0.1,0.6-0.1-0.2-0.2c0.7,0,0.8,0.3,1.4,0.3
	c-0.1-0.1,0.2-0.2-0.3-0.1c-0.3-0.2-0.2-0.3-1.5-0.2c0,0-0.1,0-0.2,0c0.1,0,0.1,0,0.2,0c0.2,0-0.3-0.1,0.1-0.1
	c-0.8,0-1.1-0.1-1.5-0.1c0.3,0,0.5-0.1,0.6-0.2c-0.9-0.2-1.2-0.1-3.5-0.5c5.1-0.8-6.7-0.3-12.6,0c1,0.1,2-0.1,4.9,0.1
	c-1-0.1-2.4,0.4-2.2,0.2c-0.8,0-0.5,0.1-2.5,0c-0.3,0.4,0.4,0.5-2,0.3c-0.8-0.1-0.2,0.1-0.7-0.2c0.3-0.1,0.3-0.2,0.7-0.2
	c-0.2,0-0.3,0-0.4-0.1c0.1-0.1,0.4-0.1,0.4-0.2c-0.4,0-0.8,0-1.3-0.1c0,0.2-0.6,0.1-0.8,0.1c0.1-0.1,0.4-0.1,0.7-0.1
	c0.1-0.3,0.6-0.1-1.6-0.1c1.9-0.1,2.5-0.7-2.6-0.6c0.2,0,1.7,0.2,0.4,0.2c0,0,0,0,0,0c0.4,0,0.6,0,0.8,0.1c-0.5,0.1-0.2,0.1-0.8-0.1
	c0,0,0,0,0,0c0,0,0,0,0,0c-0.1,0-0.1,0-0.2-0.1c-0.2,0.1-0.4,0.1,0.8,0.3c-0.7,0.1-0.2,0.2-2.7,0.1c0,0.2-0.9-0.1-3.3,0
	c0.3-0.1,0.5,0,1-0.1c-0.2,0-0.5-0.1-0.6-0.1c0.3-0.1,0.6-0.1,0.6-0.2c0.5,0,0.9-0.1,1.4-0.1c-0.2-0.1-0.7-0.1-1,0
	c0,0-0.1,0-0.1-0.1c0.5-0.2,0.2-0.3,0.1-0.5c2.1,0,1.9-0.2,8.1,0.1c0,0.1,0.2,0.1,0.1,0.1c1,0-0.2-0.1,3.4,0.2
	c0.7-0.2,1.2,0.1,2,0.1c-0.2,0-0.2-0.2-0.2,0c-0.1-0.3-0.3,0-3.4-0.4c-0.1,0.2-0.1,0.2-1.6,0c0.2-0.1,0.2-0.1,0.6-0.1
	c0-0.1-0.1-0.1,0-0.2c-0.4,0-0.5,0.1-0.7,0.1c0.1-0.2-1.1-0.1-1.5-0.2c0,0.1-0.1,0.1-0.3,0.1c-1-0.3-4.3,0.3-7.3-0.1
	c-2-0.1-2.4-0.1-8.6,0c-0.6,0-1.1,0,0.7-0.2c-0.6-0.6,4-0.3,7.1-0.4c0,0-0.1,0.1-0.1,0.1c1.1,0,1.4-0.2,3.6,0
	c0.7-0.1,1.8-0.1,2.4-0.1c0.5-0.3,0,0,1.2-0.2c0,0-0.1,0-0.1,0.1c0.5,0.1,1.7-0.2,3.9-0.1C162.4,5,163.1,5,163.3,5
	c0,0,0.1,0.1,0.2,0.1c0.6-0.2,0.4-0.2-1.9-0.2c1-0.1,0.1,0,2.2,0c-0.2-0.1,0.2-0.1,0.2-0.2c-0.8,0-1.5,0-2.2,0c0.1,0,0.2,0.2-1.3,0
	c0.1,0,0.1,0,0.1,0.1c-0.4-0.1-1-0.1-1.5-0.1c0.6,0,0.3-0.1,0.8-0.1c-0.4,0-0.7-0.1-1,0c0,0,0-0.1,0-0.1c-0.3,0-7,0.1-5.9-0.1
	c-0.1-0.2-0.6,0-0.9,0c0,0,0-0.1,0-0.1c-0.5,0-0.5,0.3-2.3,0.1c0.2,0.1-0.7,0-1,0.1c1,0-1.2,0.1-1.2-0.1c0.3,0,0.4-0.1,0.6-0.1
	c-0.7-0.1-0.2-0.2-1.2-0.2c0.1,0.1,0.4,0.1,0.6,0.1c-0.4,0-0.2,0-0.9,0c0-0.1,0-0.1-0.1-0.1c2.4-0.1,0.9,0,6.3-0.1
	c0,0.1,0.3,0,0.3,0.1c1.2-0.1,2.5,0.2,3.5,0c-0.3,0-0.7,0-0.7-0.1c0.3,0,1.7-0.1,1.4,0.1c2.7-0.2,8.3,0.1,14.6,0.1
	c-1.1-0.1-2.7,0-6-0.1c0-0.1-0.2-0.1-0.2-0.1c0.1,0,0.4,0,0.5-0.1c0.1-0.1-2.2,0.1-4.9,0.2c0.1-0.1,1.1-0.1-0.2-0.4
	c-0.2,0-0.8,0.3-0.2-0.1c-1,0.1,0-0.1-1.5-0.1c0.1,0,0.2,0,0.2,0.1c-0.2,0-0.4,0.1-0.5,0c0.1,0,0.3,0,0.3,0c-2-0.1-3.4,0-5.5-0.1
	c-1.5,0.1-2.8-0.1-6.9,0.2c0,0,0-0.1,0.1-0.1c-0.4,0.1-0.9,0-1.3-0.1c0.3-0.1,0.8,0,0.9-0.2c-0.4-0.1-0.8,0.1-2.3,0.4
	c-1.9-0.4-4.4,0.2-8.2-0.1c-0.5,0.1-0.9-0.1-1.2,0.1c0,0.2,0.3,0-2,0.1c-0.4,0-1.1,0-1.2-0.1c0.2,0,0.3,0.1,0.5,0
	c-1.2-0.2-2.4,0.2-4.9,0c-0.6,0.1-1-0.1-2-0.1c0.1,0.2-0.5,0.1-0.7,0.1c0.3,0,0.7-0.1,0.9-0.2c-0.6,0.1-1.7,0.2-1.6-0.1
	c0,0-0.2,0-0.2,0c0.4-0.1,0.2-0.1,0.6-0.2c-0.8,0.1-2.1,0.2-3.9,0.2c0-0.1-0.1-0.1-0.1-0.1c-0.3,0-0.5,0-0.7,0.1
	c0.4,0,0.6,0,0.7,0.1c-0.6,0-1,0.1-1.5,0c0.4,0,0.3-0.1,0.7-0.1c0,0.1-0.2-0.3-0.5-0.1c0.4-0.2-1.2-0.1-2.1,0c0.2-0.1,0-0.3-0.3-0.1
	c0.1-0.1-0.7,0-1.1-0.2c-0.4,0.1-1.6,0.1-1.9,0c-0.8-0.2-3.1,0.8-3.5,0.2c-0.2,0.1-0.5,0-0.6,0c0.1,0,0.2,0,0.3,0.1
	c-0.1-0.1-0.2,0.2-0.6-0.1c-0.7,0.1-0.2,0.2-2.7,0.1c0,0,0,0.1,0.1,0.1c-0.2,0.1-1.4-0.2-0.8,0c-0.5,0-0.6-0.1-0.9-0.1
	c0.2,0,0.2,0.1,0,0.1c0,0,0.2-0.2-0.7,0c0.3-0.1-0.4-0.1-0.6,0c0.1,0,0.2,0,0.2,0c-0.2,0-0.7,0.1-0.9,0c0.1,0,0.4,0,0.4-0.1
	c-0.5,0-0.3,0-1.5,0c0.6,0,1-0.3,1.4-0.1c0-0.2,0.3-0.1,0.8-0.1c-0.1-0.1,0.1-0.1,0.2-0.1c-0.3,0-0.9,0-0.4-0.1
	c-1.2-0.2-4.6,0.2-6.5,0.2c-0.4,0.1-2.1,0-4.7,0.2c0.4,0,1-0.1,1.3,0.1c-0.4,0.1-1.5,0.2-1.4-0.1c-0.5,0.1-1-0.1-1.2,0.1
	c-0.1-0.2-1.2-0.2-1.8-0.1c-1.1,0-6.7,0-6.2,0.3C81.1,3.9,80.8,3.9,72.6,4c0,0.1-0.5,0-0.7,0.1c0-0.1-0.2-0.1-0.3,0
	c-1.2-0.3-2.3,0.1-4.8-0.1c-0.1,0.2-1.2,0.1-1.2,0.1c-0.3,0.1-0.7,0.2-1.1,0.2c0,0,0.1-0.1,0.2-0.1c-1.8,0-3.2,0.2-5.4,0
	c-3,0-1.6,0.1-6.6,0.1c-0.9,0-1.4,0.1-2.1,0c0,0.1-0.5,0.1-0.6,0.2c0.5,0,1.2,0,1.5,0.2c0.2,0,0.7,0,1.7,0c2.7-0.2,2.5,0.2,9.4-0.2
	c-0.1,0.1-1.1,0-1.2,0.2c0.5,0,2.4-0.1,2.1,0.1c0.6-0.3,0.8-0.2,2.9-0.2c-0.1,0-0.1,0-0.1-0.1c0.2,0.1,0.8-0.1,1.2,0
	c-0.2,0-0.4,0-0.4,0.1c0,0.2,1.1-0.2,0.5,0c0.2,0.1,3.3-0.2,3.1-0.1c2,0,4.7,0,15-0.2c0,0,0,0,0,0c0.3,0,0.4,0,1.3,0.1
	c-0.2,0-0.2,0-0.3,0.1c0.4-0.1,1.1,0.1,1.5,0c-0.5,0-0.7,0-1.1-0.1c1.4-0.1,0.4,0,2.9,0.1c-1.2-0.1,3.7-0.2,2.8,0c1,0.1,0-0.2,2-0.1
	C94.5,4,95.2,4,95.7,4c-0.2,0.2,0.1,0.1-0.7,0.2c0.3,0.1-0.3,0.1-0.3,0.2c-0.2,0-0.2,0-0.1-0.1c-0.7,0.1-1.6,0-2.3,0.1
	c0,0,0.2-0.1,0-0.1c-0.3,0.2-0.1,0-0.7,0.2c0.1-0.1-0.8,0.1-1.3-0.1c0.1,0.4-0.6-0.1-1.8,0.3c-0.2-0.2-1.5,0-3.9-0.1
	c-0.4,0.1-1.2-0.1-4.6,0c0.1,0,0.1,0,0.2,0.1c-0.1,0-0.4,0.1-0.3-0.1c-0.3,0.1-0.8-0.1-1.1-0.1c0.3,0-0.2,0-0.2,0
	c-0.1,0.1,0,0.1-0.3,0.1c0.1,0,0.4,0,0.4,0c-0.6,0.2-2.6-0.1-4.5,0.1c-0.7,0.3-0.4,0.3-2.9,0.3c0.7,0,1.3,0.1,1.5,0.2
	c0.1,0,0.1,0,0.2,0c0.1,0,0.2-0.1,0.4,0c0-0.1-0.6,0-0.6-0.1c0.8,0,1.5,0,2,0c-0.8,0.1-0.5,0.1-1.9,0.2c-0.1,0-0.2,0.1-0.4,0
	c0,0,0.2,0,0.3,0c0,0,0,0,0,0c-0.4,0-1,0-1.7,0c0.3,0-0.1,0.1-0.2,0.1c0-0.1-1-0.1-0.5,0c-0.4,0-0.5-0.1-0.5-0.1
	c-0.3,0.1-0.6,0.1-0.9,0.2c0-0.2-0.2,0-0.4-0.1c-0.3,0.2-1.2-0.1-1.3,0c0.3,0.1-1.6,0-3.2,0c0.2,0.1-2,0.1-0.2,0.2
	c-0.2,0-0.8,0.3-1.7-0.2c-0.3,0-0.3,0.1-0.5,0.2c0.1,0,0.3,0,0.3,0c-0.3,0.1-1.1,0.1-1.1-0.1c0.3-0.1,0.4-0.2-0.8,0.1
	c0.3,0.2,0.3-0.3,0.9,0.1c-0.6,0-0.9,0-1.3,0c-2.1-0.2,0.6-0.1-5.9,0.4c0,0,0.2-0.1,0.2-0.1c-3.4,0.3-5.6-0.3-10.8,0
	c-0.8,0.1-1.3,0-4.1,0.1c0.1,0.2,1.2-0.1,1.1,0.2c1,0,1.2,0.1,2.1,0.1c-0.1,0-0.3,0-0.3,0c0.1,0,0.2,0,0.2,0c-0.4,0-0.7,0-0.9,0.1
	c0.7,0,1.6-0.1,2.2,0c-0.2,0.1-1.4,0-1.5,0.1C43,6.9,43.5,7,44.2,7c-0.2,0.2,0.5,0.1-0.8,0.2c-0.4,0.2,0-0.1-1.8,0
	c0,0.2,0.2,0.1-0.5,0.2c0,0,0-0.1,0-0.1c-1.1,0.1-0.7,0.2-2.8,0.3c2.1,0.2,4.4-0.1,8.4,0.1c-3.9,0-9.6,0.3-16.3,0.5
	c-0.6,0.4-0.7,0-2.9,0.2c0.9,0.2,1.2,0.5-1.5,0.2c0.6,0,1.1,0.2,2,0.2c-0.2,0.4,0.5-0.3,1.2,0.2c-2.7,0.7,5.3,0.4,10.6,0.3
	c-0.2,0.2,0.1,0.1-0.7,0.2c0.1,0.1,0.2,0.1,0.2,0.1c0.3,0,0.6,0,1.1,0c-0.2,0.3,2-0.3,2.1,0.3c0.7,0-0.1,0.1-0.1,0.2
	c6-0.2,13.7,0.1,21.2-0.2c0,0,0,0-0.1,0c0.4,0,1.1-0.1,1.8-0.1c0.7,0,1.4-0.1,2.1-0.1c0,0,0,0,0.2,0c-0.1,0-0.2,0-0.2,0
	c0,0,0.3,0,0.3,0.1c-0.8-0.1,0,0.1-1.8,0.1c0.5,0-1.2,0.2-0.3,0c-0.1,0-0.2,0-0.3,0c-0.6,0-1.2,0.1-1.8,0.1c0.3,0.1,0.6-0.1,2.8,0.2
	c-1.3,0.1-1.1-0.1-1.9-0.1c-0.5,0.1-0.4,0-2.3,0.1c1.1,0,0.9,0.2,2.8,0c-0.4,0-0.7,0.1-0.9,0.2c0.4,0,0.3-0.1,0.8-0.1
	c0,0-0.2,0.1-0.2,0.1c0.4-0.1,1.3-0.1,1.4,0c-0.8,0.1-1.5,0.1-2.1,0.1c0.8,0.2-0.1,0,1.7,0.1c-1,0-0.7,0-2.8,0.2
	c2.2,0.1,2.8-0.3,7.6,0.1c-0.9,0.1-1,0-6.7,0.3c-0.6,0,0,0-2.3,0c0.1,0,0.2,0,0.2,0c-1.4-0.1-3.4-0.1-4.7,0.1c0,0,0-0.1,0-0.1
	c-1.5,0.1-3.7,0.3-5.4,0.1c-2.9,0.2-7.9,0.2-13.2,0.3c0.1-0.1-1.8,0.2-5.2-0.2c0,0.1,0.1,0.1,0.2,0.2c-0.8-0.1-1.8-0.1-2.6,0
	c0,0,0-0.1,0-0.1c-0.6,0.1-1.4,0.2-1.9,0.1c-3.1,0.2-8.1,0-14.5,0.2c3.3,0,6.6,0.1,10-0.1c0,0.1,0.6,0,0.5,0.1
	c1.2,0.1,2.2-0.2,6.2,0c3.7-0.2,8.1-0.1,14.3-0.1c0,0,0,0,0,0c0.1,0,0.3,0,0.3,0.1c0-0.2,0.9,0.2,1.3-0.1c0.5-0.1,0.1,0.2,1.1,0
	c-0.3,0,0.6,0.3,1-0.1c0.3,0,0.5,0,0.6,0c0,0,0,0.1,0,0.1c0.2,0,0.9-0.1,1.1,0c-0.4,0-0.8,0.1-1.3,0c0.1,0.2,1.9-0.1,2.2,0.2
	c-1.6,0.1-2.2,0-7.8,0.1c-1.8,0.3-3.3,0.2-11.9,0c-0.4,0.1-1.3,0.1-3.2,0c0.2,0,0.3,0.1,0.3,0.1c-1.3,0-2.5-0.1-5.7,0.1
	c0.6,0.1,1.8-0.1,1.9,0.2c-0.6-0.1-1.1,0.1-1.7,0c-0.2,0.3-3.3,0.2-4,0.2c0.2,0,0.6,0,0.6,0c-2.1,0.1-3.6,0.2-5.4,0.2
	c0,0.3-1,0.1-1.3,0.1C13.6,13,14,12.6,10,13c0.4,0.1,1-0.1,1.5,0c-0.4,0.3-1.5,0.2,0.4,0.3c-0.7,0.1-0.1,0-3.8,0.2
	c0.4,0.2-0.7-0.2-2.1,0.4c0.2,0.1,0.4,0,0.6,0c-0.2,0.1-0.4,0.3-1,0.3c0,0,0.2-0.1,0.2-0.1c-1,0.1-1,0.2-3.4,0.3
	c0.4,0.1,0.8-0.1,1,0.1c-0.5,0.1-1.2,0,0.6,0.1c0.1,0-0.9-0.1-0.4,0.2c0.8,0-0.5-0.2,1.3-0.1c-0.5,0.2-1.4-0.1-3.4,0.3
	c0.4,0,0.9,0,0.4-0.1c0.4,0,0.4,0.1,0.6,0.1c-0.7,0.1-0.5,0-1.2,0c0.3,0,0.5,0.1,0.2,0.1c1,0.1,4.7,0.2,7.1,0.3
	c-0.7,0.1,0,0-1.9,0.1c0.7,0,1.6,0.1,2.2,0c-0.1,0-0.3,0-0.3,0c3.2-0.3,2.7,0.5,11.7,0.2c-1,0.2,0.1,0,2.9,0.2
	c-0.1,0.1-0.2,0.1-0.2,0.1c0.1,0,0.5-0.1,1.3,0.1c0.4-0.1,0.8,0.1,2.7,0c0.9,0.3,0,0,2.7,0c0.7,0.3,3.3,0,5.4,0.1
	c-0.6,0,1.1-0.2,0.6,0c2.3-0.1,4.9,0,7.6,0c-0.1,0-0.2,0-0.2,0c0.8,0,2,0.1,6.2,0c0.6,0.1,4,0,4.5,0.1c1.2-0.2,2.8,0.1,5.2,0.2
	c0.4-0.1,0.9-0.1,1.3,0.1c-0.8,0.1-1.4,0-1.9,0.1c0.8,0,0.5,0,1.9,0c0.7-0.2,0.2-0.1,2.3,0c-0.2,0-0.3,0-0.4,0.1
	c0.5,0,1.1,0.1,1.2-0.1c-0.2,0-0.6,0-0.7,0c0.7-0.1,1.2,0,1.6,0c-0.4,0-0.3,0.2,4.3,0.1c0,0.5-0.3,0.1,3.2,0.3c-0.5,0-1.7,0-3.5,0.1
	c-0.3-0.1-0.3-0.2-1.1,0.1c-2.5-0.2-3.2,0.1-8.6,0c0.5,0,1.1,0,1.4,0.1c-0.2,0-0.5-0.1-0.6,0c0.2,0,0.5,0,0.6,0.1
	c-0.5,0.1-0.9-0.1-1.1-0.1c0.6,0.1-0.6,0.2,0.8,0.2c0.7-0.2,2.3-0.2,5.7-0.2c0.7,0.2,2.4,0.1,5.4,0c0-0.1,0-0.1,0.2-0.1c0,0,0,0,0,0
	c0.1,0,0.1,0,0.2,0c0.1,0,0.2,0,0.3,0c-0.2,0.1-0.2,0-0.3,0c-0.1,0-0.1,0-0.2,0c0.4,0.1,1.1,0.2,5.2-0.1c-0.5-0.2-1.4-0.1-2-0.1
	c0.4-0.4,0.5,0,2.4-0.1c-0.4-0.1-0.6-0.1,0.7-0.1c-0.5,0-0.4,0.1-0.7,0c0.8,0.3,0.3-0.1,1.5,0.2c1.1-0.1-0.1,0.3,5.9,0
	c0,0.1,0.3,0,0.3,0.1c-0.1,0-0.1,0.1-0.2,0.1c1-0.2-0.1-0.2,2.4-0.2c0,0.2-0.1,0.1,0.6,0c0,0-0.2,0.1-0.2,0.1c0.5-0.2,1.6,0,1.9,0
	c0.6-0.1,5.6-0.2,7.6-0.1c0.1,0,0.2,0,0.2,0c-0.1,0-0.3,0-0.3,0c2.5,0,4.5,0.2,11,0c-0.3,0.1,0.4,0,0.4,0.1c-0.8,0.2-1.7,0-2.9,0.2
	c0.3,0.2-0.4-0.2,2.6,0c1.2-0.2,1.3,0,4.8-0.1c-1,0.2,0.1,0.1-2.2,0.2c0.1,0.2,0.6,0,1.7,0c0.3,0.2,1.1,0,1.5,0.2
	c-1,0-1.4,0.1-2.2,0.1c0.4,0.2,0.1-0.2,1.1,0.1c2.4,0,0.8,0.2,5.9,0.1c-0.4,0,0.8-0.2,1.9,0.1c-0.3-0.1,1.3-0.2,0.9,0
	c0.5-0.1,0.3,0.3,1.9-0.1c-0.1-0.5,0.3-0.5-1-0.6c-1.3,0.1-0.7,0.1-3.7,0c0-0.1-0.3,0-0.5-0.1c0.3,0,0.6,0,1-0.1
	c-0.8,0.1,1.8,0.3,0.5,0.1c0.5,0.1,0.3-0.4,2.5,0.1c1.1-0.1-0.3,0,4,0c-0.1,0-0.2,0-0.3-0.1c0.3,0,0.3-0.1,0.6,0
	c0.7,0.3,0.7-0.3,2.9,0.2c0-0.1,0-0.1,0.1-0.1c-0.2,0-0.4,0.1-0.5,0c-0.1-0.1,0.9,0,1.3,0c0,0,0,0,0,0c0.3,0,0.2,0,0,0
	c0,0.1-0.4,0.1-0.7,0.1c1.6,0.1,0.9,0.1,3.9,0.4c0,0-0.2,0.1-0.2,0.1c0.5,0.1,0.8-0.2,0.9,0c-0.5,0-1,0-1.2,0.1c0.2,0,0.3,0,0.4,0.1
	c-0.4-0.1-0.1,0.1-0.9,0.1c0,0.2-0.6,0.2,0.5,0.3c-0.7,0.1-1.2,0.1-1.6,0c0.3,0,0.5-0.2-0.7,0.1c-1.1-0.1-1.6,0-4-0.2
	c0.8,0.3-0.9-0.2-2.1,0.1c0-0.1,0.3-0.1,0.3-0.1c-1.9-0.1-2.9,0.2-6.8,0.1c0,0-0.2,0-0.2-0.1c0.3-0.1,0.3-0.1-0.9-0.1
	c0.2,0.2,0.9,0.1,1.2,0.3c-0.2,0.1-0.7,0-1.1,0c0.7,0.1,1.1,0,3.8,0.1c-0.3,0-0.5,0-0.6,0.1c0.9,0,1.5-0.2,4.3,0
	c0.6-0.1,1.3,0,2-0.1c0,0-0.2,0.1-0.2,0.1c0.4,0,0.7-0.1,1.1-0.1c-0.2,0.1,0.3,0.1,0.4,0.2c0.7-0.1,0.2,0.1,1.8-0.1
	c-0.3,0.3,0.6,0,2.6,0.2c0.8-0.2,0.2,0,2.2,0.2c-0.9,0.1-2.7-0.1-3.9,0.1c0.2,0.1,0-0.1,1.2,0.1c-0.2,0.2-1,0-1.4,0.1
	c-0.1,0.1-0.2,0.1-0.7,0.1c0.1,0,0.3,0,0.5,0c-0.3,0,0.2,0.2,0.2,0.1c-0.1,0-0.3-0.1,0.6-0.1c1.2,0.2,1.8,0.1,4.9,0
	c-0.1,0-0.1,0-0.1,0c0.2-0.1,0.8,0,0.8-0.1c0.2,0,0.9-0.2,2.6,0c0.3,0,0.5,0,0.7,0c-0.3,0-0.5,0.1-0.7,0.2c0.4-0.1,1.1,0,1.2-0.2
	c-0.2,0-0.4,0.1-0.5,0c0.3,0,0.6-0.1,0.8-0.1c0,0.1,0.1,0.1,0.3,0.1c0.3,0.3,0-0.3,1.4,0.1c-0.1,0.1-0.5,0.1-0.7,0.2
	c0.5,0,0.6-0.1,1.1-0.1c0.7,0.2,0,0,2.7,0c0,0,0,0,0,0c-0.3,0-0.5-0.2,0,0c0,0,0,0,0,0c0,0,0,0,0,0c0.1,0,0.1,0.1,0.2,0.1
	c0.4,0,0.4-0.2,2.3,0c-0.4-0.3,2.4,0.3,5.4,0.3c-0.6,0.1,0.6,0,0.2,0.1c0.4-0.1,1.2-0.1,1.4-0.1c-0.1,0.1-0.1-0.2,0.4-0.1
	c0.1,0.2,0.4,0,1.1,0.1c-0.1,0-0.2,0-0.3,0.1c0.3,0,0.2,0.1,0.1,0.1c0.3,0,0.6,0.1,0.8,0.1c0-0.1-0.3-0.2,0-0.3
	c-0.3,0-0.3-0.1-0.4-0.2c1.4,0,3.3,0.1,4.5,0.3c0.6,0.2,1.8,0.3,3.6-0.3c1.2-0.2,0.7-0.1,4.2-0.7c-0.2-0.2,0-0.3,0.1-0.3
	c0,0,0.3,0,0.3,0c-0.2,0,0,0,0.2,0c-0.2,0,0.5,0.2,0.6,0.1c-0.3-0.1-1-0.1-0.7-0.3c-0.3,0-0.5,0-0.6-0.1c0.1,0,0.2-0.1,0.4-0.1
	c-0.1-0.1-0.3-0.1-0.4-0.1c0.4-0.2,0.1,0.2,3.2-0.1c-0.1,0-0.4,0.1-0.6,0.2c0.4,0,0.9-0.2,1.2,0c-0.8,0.2-2,0.3-3.2,0.3
	c0.4,0.2,13.4-0.7,5,0.7c1.5,0.5,2.2,0.1,5.8-0.5c-0.3-0.3,0.6-0.4,0.1-0.7c0.2,0,0.3,0,0.4,0c-0.4-0.1,0.6-0.4-0.1-0.6
	c0.3,0,0.3-0.1,0.4-0.2C179.1,17.5,180.8,16.9,176.2,15.4z"/>
</svg>
