<?xml version="1.0" encoding="utf-8"?>
<!-- Generator: Adobe Illustrator 23.1.1, SVG Export Plug-In . SVG Version: 6.00 Build 0)  -->
<svg version="1.2" baseProfile="tiny" id="Layer_1" xmlns="http://www.w3.org/2000/svg" xmlns:xlink="http://www.w3.org/1999/xlink"
	 x="0px" y="0px" viewBox="0 0 187.7 23.5" xml:space="preserve">
<path fill="#432C18" d="M176.2,15.4c0.2-0.1-0.5-0.3-0.2-0.4c-0.2,0-0.4,0-0.4-0.1c0.2,0,0.4,0,0.4-0.1c-0.7-0.4,0.1-0.1-1.5-0.8
	c1,0,0.1-0.7-2-1c0.1,0,0.2,0,0.3,0c-0.3,0-0.8-0.1-0.5-0.3c-0.5,0-0.8-0.1-0.6-0.2c0,0-0.1-0.1-0.1-0.1c-0.3,0-0.2,0-0.4,0
	c0,0,0-0.1-0.1-0.1c0.2,0.1,0.2-0.5-0.9-0.1c0.2-0.1-0.2-0.2,0.3-0.2c-0.1,0-0.1-0.2-0.6-0.1c0.1-0.1-0.5-0.4,3.2,0.1
	c-0.1,0-0.2,0-0.3,0.1c1.5,0,0.2,0.5,3.7,0.5c0-0.1,0.3-0.1,0.7-0.1c-0.2-0.3,0.8-0.3,0.5-0.5c0.9,0-0.5-0.1,0.4-0.2
	c-0.1-0.3-1.2-0.3-1.6-0.5c1.5-0.2,2.2,0.3,3.5,0.2c1.7,0.3,0.6-0.1,4.1-0.6c-0.2-0.2,2.5,0,0.9-0.9c-0.3-0.1-0.7-0.2-0.9-0.4
	c0.4,0,0.3-0.1,0.1-0.1c0.1,0,0.3,0,0.4,0c-0.7-0.6-0.1-0.1-2.3-0.6c0.2-0.1,0.6-0.1-0.2-0.2c0.7,0,0.8,0.3,1.4,0.3
	c-0.1-0.1,0.2-0.2-0.3-0.1c-0.3-0.2-0.2-0.3-1.5-0.2c0,0-0.1,0-0.2,0c0.1,0,0.1,0,0.2,0c0.2,0-0.3-0.1,0.1-0.1
	c-0.8,0-1.1-0.1-1.5-0.1c0.3,0,0.5-0.1,0.6-0.2c-0.9-0.2-1.2-0.1-3.5-0.5c5.1-0.8-6.7-0.3-12.6,0c1,0.1,2-0.1,4.9,0.1
	c-1-0.1-2.4,0.4-2.2,0.2c-0.8,0-0.5,0.1-2.5,0c-0.3,0.4,0.4,0.5-2,0.3c-0.8-0.1-0.2,0.1-0.7-0.2c0.3-0.1,0.3-0.2,0.7-0.2
	c-0.2,0-0.3,0-0.4-0.1c0.1-0.1,0.4-0.1,0.4-0.2c-0.4,0-0.8,0-1.3-0.1c0,0.2-0.6,0.1-0.8,0.1c0.1-0.1,0.4-0.1,0.7-0.1
	c0.1-0.3,0.6-0.1-1.6-0.1c1.9-0.1,2.5-0.7-2.6-0.6c0.2,0,1.7,0.2,0.4,0.2c0,0,0,0,0,0c0.4,0,0.6,0,0.8,0.1c-0.5,0.1-0.2,0.1-0.8-0.1
	c0,0,0,0,0,0c0,0,0,0,0,0c-0.1,0-0.1,0-0.2-0.1c-0.2,0.1-0.4,0.1,0.8,0.3c-0.7,0.1-0.2,0.2-2.7,0.1c0,0.2-0.9-0.1-3.3,0
	c0.3-0.1,0.5,0,1-0.1c-0.2,0-0.5-0.1-0.6-0.1c0.3-0.1,0.6-0.1,0.6-0.2c0.5,0,0.9-0.1,1.4-0.1c-0.2-0.1-0.7-0.1-1,0
	c0,0-0.1,0-0.1-0.1c0.5-0.2,0.2-0.3,0.1-0.5c2.1,0,1.9-0.2,8.1,0.1c0,0.1,0.2,0.1,0.1,0.1c1,0-0.2-0.1,3.4,0.2
	c0.7-0.2,1.2,0.1,2,0.1c-0.2,0-0.2-0.2-0.2,0c-0.1-0.3-0.3,0-3.4-0.4c-0.1,0.2-0.1,0.2-1.6,0c0.2-0.1,0.2-0.1,0.6-0.1
	c0-0.1-0.1-0.1,0-0.2c-0.4,0-0.5,0.1-0.7,0.1c0.1-0.2-1.1-0.1-1.5-0.2c0,0.1-0.1,0.1-0.3,0.1c-1-0.3-4.3,0.3-7.3-0.1
	c-2-0.1-2.4-0.1-8.6,0c-0.6,0-1.1,0,0.7-0.2c-0.6-0.6,4-0.3,7.1-0.4c0,0-0.1,0.1-0.1,0.1c1.1,0,1.4-0.2,3.6,0
	c0.7-0.1,1.8-0.1,2.4-0.1c0.5-0.3,0,0,1.2-0.2c0,0-0.1,0-0.1,0.1c0.5,0.1,1.7-0.2,3.9-0.1C162.4,5,163.1,5,163.3,5
	c0,0,0.1,0.1,0.2,0.1c0.6-0.2,0.4-0.2-1.9-0.2c1-0.1,0.1,0,2.2,0c-0.2-0.1,0.2-0.1,0.2-0.2c-0.8,0-1.5,0-2.2,0c0.1,0,0.2,0.2-1.3,0
	c0.1,0,0.1,0,0.1,0.1c-0.4-0.1-1-0.1-1.5-0.1c0.6,0,0.3-0.1,0.8-0.1c-0.4,0-0.7-0.1-1,0c0,0,0-0.1,0-0.1c-0.3,0-7,0.1-5.9-0.1
	c-0.1-0.2-0.6,0-0.9,0c0,0,0-0.1,0-0.1c-0.5,0-0.5,0.3-2.3,0.1c0.2,0.1-0.7,0-1,0.1c1,0-1.2,0.1-1.2-0.1c0.3,0,0.4-0.1,0.6-0.1
	c-0.7-0.1-0.2-0.2-1.2-0.2c0.1,0.1,0.4,0.1,0.6,0.1c-0.4,0-0.2,0-0.9,0c0-0.1,0-0.1-0.1-0.1c2.4-0.1,0.9,0,6.3-0.1
	c0,0.1,0.3,0,0.3,0.1c1.2-0.1,2.5,0.2,3.5,0c-0.3,0-0.7,0-0.7-0.1c0.3,0,1.7-0.1,1.4,0.1c2.7-0.2,8.3,0.1,14.6,0.1
	c-1.1-0.1-2.7,0-6-0.1c0-0.1-0.2-0.1-0.2-0.1c0.1,0,0.4,0,0.5-0.1c0.1-0.1-2.2,0.1-4.9,0.2c0.1-0.1,1.1-0.1-0.2-0.4
	c-0.2,0-0.8,0.3-0.2-0.1c-1,0.1,0-0.1-1.5-0.1c0.1,0,0.2,0,0.2,0.1c-0.2,0-0.4,0.1-0.5,0c0.1,0,0.3,0,0.3,0c-2-0.1-3.4,0-5.5-0.1
	c-1.5,0.1-2.8-0.1-6.9,0.2c0,0,0-0.1,0.1-0.1c-0.4,0.1-0.9,0-1.3-0.1c0.3-0.1,0.8,0,0.9-0.2c-0.4-0.1-0.8,0.1-2.3,0.4
	c-1.9-0.4-4.4,0.2-8.2-0.1c-0.5,0.1-0.9-0.1-1.2,0.1c0,0.2,0.3,0-2,0.1c-0.4,0-1.1,0-1.2-0.1c0.2,0,0.3,0.1,0.5,0
	c-1.2-0.2-2.4,0.2-4.9,0c-0.6,0.1-1-0.1-2-0.1c0.1,0.2-0.5,0.1-0.7,0.1c0.3,0,0.7-0.1,0.9-0.2c-0.6,0.1-1.7,0.2-1.6-0.1
	c0,0-0.2,0-0.2,0c0.4-0.1,0.2-0.1,0.6-0.2c-0.8,0.1-2.1,0.2-3.9,0.2c0-0.1-0.1-0.1-0.1-0.1c-0.3,0-0.5,0-0.7,0.1
	c0.4,0,0.6,0,0.7,0.1c-0.6,0-1,0.1-1.5,0c0.4,0,0.3-0.1,0.7-0.1c0,0.1-0.2-0.3-0.5-0.1c0.4-0.2-1.2-0.1-2.1,0c0.2-0.1,0-0.3-0.3-0.1
	c0.1-0.1-0.7,0-1.1-0.2c-0.4,0.1-1.6,0.1-1.9,0c-0.8-0.2-3.1,0.8-3.5,0.2c-0.2,0.1-0.5,0-0.6,0c0.1,0,0.2,0,0.3,0.1
	c-0.1-0.1-0.2,0.2-0.6-0.1c-0.7,0.1-0.2,0.2-2.7,0.1c0,0,0,0.1,0.1,0.1c-0.2,0.1-1.4-0.2-0.8,0c-0.5,0-0.6-0.1-0.9-0.1
	c0.2,0,0.2,0.1,0,0.1c0,0,0.2-0.2-0.7,0c0.3-0.1-0.4-0.1-0.6,0c0.1,0,0.2,0,0.2,0c-0.2,0-0.7,0.1-0.9,0c0.1,0,0.4,0,0.4-0.1
	c-0.5,0-0.3,0-1.5,0c0.6,0,1-0.3,1.4-0.1c0-0.2,0.3-0.1,0.8-0.1c-0.1-0.1,0.1-0.1,0.2-0.1c-0.3,0-0.9,0-0.4-0.1
	c-1.2-0.2-4.6,0.2-6.5,0.2c-0.4,0.1-2.1,0-4.7,0.2c0.4,0,1-0.1,1.3,0.1c-0.4,0.1-1.5,0.2-1.4-0.1c-0.5,0.1-1-0.1-1.2,0.1
	c-0.1-0.2-1.2-0.2-1.8-0.1c-1.1,0-6.7,0-6.2,0.3C81.1,3.9,80.8,3.9,72.6,4c0,0.1-0.5,0-0.7,0.1c0-0.1-0.2-0.1-0.3,0
	c-1.2-0.3-2.3,0.1-4.8-0.1c-0.1,0.2-1.2,0.1-1.2,0.1c-0.3,0.1-0.7,0.2-1.1,0.2c0,0,0.1-0.1,0.2-0.1c-1.8,0-3.2,0.2-5.4,0
	c-3,0-1.6,0.1-6.6,0.1c-0.9,0-1.4,0.1-2.1,0c0,0.1-0.5,0.1-0.6,0.2c0.5,0,1.2,0,1.5,0.2c0.2,0,0.7,0,1.7,0c2.7-0.2,2.5,0.2,9.4-0.2
	c-0.1,0.1-1.1,0-1.2,0.2c0.5,0,2.4-0.1,2.1,0.1c0.6-0.3,0.8-0.2,2.9-0.2c-0.1,0-0.1,0-0.1-0.1c0.2,0.1,0.8-0.1,1.2,0
	c-0.2,0-0.4,0-0.4,0.1c0,0.2,1.1-0.2,0.5,0c0.2,0.1,3.3-0.2,3.1-0.1c2,0,4.7,0,15-0.2c0,0,0,0,0,0c0.3,0,0.4,0,1.3,0.1
	c-0.2,0-0.2,0-0.3,0.1c0.4-0.1,1.1,0.1,1.5,0c-0.5,0-0.7,0-1.1-0.1c1.4-0.1,0.4,0,2.9,0.1c-1.2-0.1,3.7-0.2,2.8,0c1,0.1,0-0.2,2-0.1
	C94.5,4,95.2,4,95.7,4c-0.2,0.2,0.1,0.1-0.7,0.2c0.3,0.1-0.3,0.1-0.3,0.2c-0.2,0-0.2,0-0.1-0.1c-0.7,0.1-1.6,0-2.3,0.1
	c0,0,0.2-0.1,0-0.1c-0.3,0.2-0.1,0-0.7,0.2c0.1-0.1-0.8,0.1-1.3-0.1c0.1,0.4-0.6-0.1-1.8,0.3c-0.2-0.2-1.5,0-3.9-0.1
	c-0.4,0.1-1.2-0.1-4.6,0c0.1,0,0.1,0,0.2,0.1c-0.1,0-0.4,0.1-0.3-0.1c-0.3,0.1-0.8-0.1-1.1-0.1c0.3,0-0.2,0-0.2,0
	c-0.1,0.1,0,0.1-0.3,0.1c0.1,0,0.4,0,0.4,0c-0.6,0.2-2.6-0.1-4.5,0.1c-0.7,0.3-0.4,0.3-2.9,0.3c0.7,0,1.3,0.1,1.5,0.2
	c0.1,0,0.1,0,0.2,0c0.1,0,0.2-0.1,0.4,0c0-0.1-0.6,0-0.6-0.1c0.8,0,1.5,0,2,0c-0.8,0.1-0.5,0.1-1.9,0.2c-0.1,0-0.2,0.1-0.4,0
	c0,0,0.2,0,0.3,0c0,0,0,0,0,0c-0.4,0-1,0-1.7,0c0.3,0-0.1,0.1-0.2,0.1c0-0.1-1-0.1-0.5,0c-0.4,0-0.5-0.1-0.5-0.1
	c-0.3,0.1-0.6,0.1-0.9,0.2c0-0.2-0.2,0-0.4-0.1c-0.3,0.2-1.2-0.1-1.3,0c0.3,0.1-1.6,0-3.2,0c0.2,0.1-2,0.1-0.2,0.2
	c-0.2,0-0.8,0.3-1.7-0.2c-0.3,0-0.3,0.1-0.5,0.2c0.1,0,0.3,0,0.3,0c-0.3,0.1-1.1,0.1-1.1-0.1c0.3-0.1,0.4-0.2-0.8,0.1
	c0.3,0.2,0.3-0.3,0.9,0.1c-0.6,0-0.9,0-1.3,0c-2.1-0.2,0.6-0.1-5.9,0.4c0,0,0.2-0.1,0.2-0.1c-3.4,0.3-5.6-0.3-10.8,0
	c-0.8,0.1-1.3,0-4.1,0.1c0.1,0.2,1.2-0.1,1.1,0.2c1,0,1.2,0.1,2.1,0.1c-0.1,0-0.3,0-0.3,0c0.1,0,0.2,0,0.2,0c-0.4,0-0.7,0-0.9,0.1
	c0.7,0,1.6-0.1,2.2,0c-0.2,0.1-1.4,0-1.5,0.1C43,6.9,43.5,7,44.2,7c-0.2,0.2,0.5,0.1-0.8,0.2c-0.4,0.2,0-0.1-1.8,0
	c0,0.2,0.2,0.1-0.5,0.2c0,0,0-0.1,0-0.1c-1.1,0.1-0.7,0.2-2.8,0.3c2.1,0.2,4.4-0.1,8.4,0.1c-3.9,0-9.6,0.3-16.3,0.5
	c-0.6,0.4-0.7,0-2.9,0.2c0.9,0.2,1.2,0.5-1.5,0.2c0.6,0,1.1,0.2,2,0.2c-0.2,0.4,0.5-0.3,1.2,0.2c-2.7,0.7,5.3,0.4,10.6,0.3
	c-0.2,0.2,0.1,0.1-0.7,0.2c0.1,0.1,0.2,0.1,0.2,0.1c0.3,0,0.6,0,1.1,0c-0.2,0.3,2-0.3,2.1,0.3c0.7,0-0.1,0.1-0.1,0.2
	c6-0.2,13.7,0.1,21.2-0.2c0,0,0,0-0.1,0c0.4,0,1.1-0.1,1.8-0.1c0.7,0,1.4-0.1,2.1-0.1c0,0,0,0,0.2,0c-0.1,0-0.2,0-0.2,0
	c0,0,0.3,0,0.3,0.1c-0.8-0.1,0,0.1-1.8,0.1c0.5,0-1.2,0.2-0.3,0c-0.1,0-0.2,0-0.3,0c-0.6,0-1.2,0.1-1.8,0.1c0.3,0.1,0.6-0.1,2.8,0.2
	c-1.3,0.1-1.1-0.1-1.9-0.1c-0.5,0.1-0.4,0-2.3,0.1c1.1,0,0.9,0.2,2.8,0c-0.4,0-0.7,0.1-0.9,0.2c0.4,0,0.3-0.1,0.8-0.1
	c0,0-0.2,0.1-0.2,0.1c0.4-0.1,1.3-0.1,1.4,0c-0.8,0.1-1.5,0.1-2.1,0.1c0.8,0.2-0.1,0,1.7,0.1c-1,0-0.7,0-2.8,0.2
	c2.2,0.1,2.8-0.3,7.6,0.1c-0.9,0.1-1,0-6.7,0.3c-0.6,0,0,0-2.3,0c0.1,0,0.2,0,0.2,0c-1.4-0.1-3.4-0.1-4.7,0.1c0,0,0-0.1,0-0.1
	c-1.5,0.1-3.7,0.3-5.4,0.1c-2.9,0.2-7.9,0.2-13.2,0.3c0.1-0.1-1.8,0.2-5.2-0.2c0,0.1,0.1,0.1,0.2,0.2c-0.8-0.1-1.8-0.1-2.6,0
	c0,0,0-0.1,0-0.1c-0.6,0.1-1.4,0.2-1.9,0.1c-3.1,0.2-8.1,0-14.5,0.2c3.3,0,6.6,0.1,10-0.1c0,0.1,0.6,0,0.5,0.1
	c1.2,0.1,2.2-0.2,6.2,0c3.7-0.2,8.1-0.1,14.3-0.1c0,0,0,0,0,0c0.1,0,0.3,0,0.3,0.1c0-0.2,0.9,0.2,1.3-0.1c0.5-0.1,0.1,0.2,1.1,0
	c-0.3,0,0.6,0.3,1-0.1c0.3,0,0.5,0,0.6,0c0,0,0,0.1,0,0.1c0.2,0,0.9-0.1,1.1,0c-0.4,0-0.8,0.1-1.3,0c0.1,0.2,1.9-0.1,2.2,0.2
	c-1.6,0.1-2.2,0-7.8,0.1c-1.8,0.3-3.3,0.2-11.9,0c-0.4,0.1-1.3,0.1-3.2,0c0.2,0,0.3,0.1,0.3,0.1c-1.3,0-2.5-0.1-5.7,0.1
	c0.6,0.1,1.8-0.1,1.9,0.2c-0.6-0.1-1.1,0.1-1.7,0c-0.2,0.3-3.3,0.2-4,0.2c0.2,0,0.6,0,0.6,0c-2.1,0.1-3.6,0.2-5.4,0.2
	c0,0.3-1,0.1-1.3,0.1C13.6,13,14,12.6,10,13c0.4,0.1,1-0.1,1.5,0c-0.4,0.3-1.5,0.2,0.4,0.3c-0.7,0.1-0.1,0-3.8,0.2
	c0.4,0.2-0.7-0.2-2.1,0.4c0.2,0.1,0.4,0,0.6,0c-0.2,0.1-0.4,0.3-1,0.3c0,0,0.2-0.1,0.2-0.1c-1,0.1-1,0.2-3.4,0.3
	c0.4,0.1,0.8-0.1,1,0.1c-0.5,0.1-1.2,0,0.6,0.1c0.1,0-0.9-0.1-0.4,0.2c0.8,0-0.5-0.2,1.3-0.1c-0.5,0.2-1.4-0.1-3.4,0.3
	c0.4,0,0.9,0,0.4-0.1c0.4,0,0.4,0.1,0.6,0.1c-0.7,0.1-0.5,0-1.2,0c0.3,0,0.5,0.1,0.2,0.1c1,0.1,4.7,0.2,7.1,0.3
	c-0.7,0.1,0,0-1.9,0.1c0.7,0,1.6,0.1,2.2,0c-0.1,0-0.3,0-0.3,0c3.2-0.3,2.7,0.5,11.7,0.2c-1,0.2,0.1,0,2.9,0.2
	c-0.1,0.1-0.2,0.1-0.2,0.1c0.1,0,0.5-0.1,1.3,0.1c0.4-0.1,0.8,0.1,2.7,0c0.9,0.3,0,0,2.7,0c0.7,0.3,3.3,0,5.4,0.1
	c-0.6,0,1.1-0.2,0.6,0c2.3-0.1,4.9,0,7.6,0c-0.1,0-0.2,0-0.2,0c0.8,0,2,0.1,6.2,0c0.6,0.1,4,0,4.5,0.1c1.2-0.2,2.8,0.1,5.2,0.2
	c0.4-0.1,0.9-0.1,1.3,0.1c-0.8,0.1-1.4,0-1.9,0.1c0.8,0,0.5,0,1.9,0c0.7-0.2,0.2-0.1,2.3,0c-0.2,0-0.3,0-0.4,0.1
	c0.5,0,1.1,0.1,1.2-0.1c-0.2,0-0.6,0-0.7,0c0.7-0.1,1.2,0,1.6,0c-0.4,0-0.3,0.2,4.3,0.1c0,0.5-0.3,0.1,3.2,0.3c-0.5,0-1.7,0-3.5,0.1
	c-0.3-0.1-0.3-0.2-1.1,0.1c-2.5-0.2-3.2,0.1-8.6,0c0.5,0,1.1,0,1.4,0.1c-0.2,0-0.5-0.1-0.6,0c0.2,0,0.5,0,0.6,0.1
	c-0.5,0.1-0.9-0.1-1.1-0.1c0.6,0.1-0.6,0.2,0.8,0.2c0.7-0.2,2.3-0.2,5.7-0.2c0.7,0.2,2.4,0.1,5.4,0c0-0.1,0-0.1,0.2-0.1c0,0,0,0,0,0
	c0.1,0,0.1,0,0.2,0c0.1,0,0.2,0,0.3,0c-0.2,0.1-0.2,0-0.3,0c-0.1,0-0.1,0-0.2,0c0.4,0.1,1.1,0.2,5.2-0.1c-0.5-0.2-1.4-0.1-2-0.1
	c0.4-0.4,0.5,0,2.4-0.1c-0.4-0.1-0.6-0.1,0.7-0.1c-0.5,0-0.4,0.1-0.7,0c0.8,0.3,0.3-0.1,1.5,0.2c1.1-0.1-0.1,0.3,5.9,0
	c0,0.1,0.3,0,0.3,0.1c-0.1,0-0.1,0.1-0.2,0.1c1-0.2-0.1-0.2,2.4-0.2c0,0.2-0.1,0.1,0.6,0c0,0-0.2,0.1-0.2,0.1c0.5-0.2,1.6,0,1.9,0
	c0.6-0.1,5.6-0.2,7.6-0.1c0.1,0,0.2,0,0.2,0c-0.1,0-0.3,0-0.3,0c2.5,0,4.5,0.2,11,0c-0.3,0.1,0.4,0,0.4,0.1c-0.8,0.2-1.7,0-2.9,0.2
	c0.3,0.2-0.4-0.2,2.6,0c1.2-0.2,1.3,0,4.8-0.1c-1,0.2,0.1,0.1-2.2,0.2c0.1,0.2,0.6,0,1.7,0c0.3,0.2,1.1,0,1.5,0.2
	c-1,0-1.4,0.1-2.2,0.1c0.4,0.2,0.1-0.2,1.1,0.1c2.4,0,0.8,0.2,5.9,0.1c-0.4,0,0.8-0.2,1.9,0.1c-0.3-0.1,1.3-0.2,0.9,0
	c0.5-0.1,0.3,0.3,1.9-0.1c-0.1-0.5,0.3-0.5-1-0.6c-1.3,0.1-0.7,0.1-3.7,0c0-0.1-0.3,0-0.5-0.1c0.3,0,0.6,0,1-0.1
	c-0.8,0.1,1.8,0.3,0.5,0.1c0.5,0.1,0.3-0.4,2.5,0.1c1.1-0.1-0.3,0,4,0c-0.1,0-0.2,0-0.3-0.1c0.3,0,0.3-0.1,0.6,0
	c0.7,0.3,0.7-0.3,2.9,0.2c0-0.1,0-0.1,0.1-0.1c-0.2,0-0.4,0.1-0.5,0c-0.1-0.1,0.9,0,1.3,0c0,0,0,0,0,0c0.3,0,0.2,0,0,0
	c0,0.1-0.4,0.1-0.7,0.1c1.6,0.1,0.9,0.1,3.9,0.4c0,0-0.2,0.1-0.2,0.1c0.5,0.1,0.8-0.2,0.9,0c-0.5,0-1,0-1.2,0.1c0.2,0,0.3,0,0.4,0.1
	c-0.4-0.1-0.1,0.1-0.9,0.1c0,0.2-0.6,0.2,0.5,0.3c-0.7,0.1-1.2,0.1-1.6,0c0.3,0,0.5-0.2-0.7,0.1c-1.1-0.1-1.6,0-4-0.2
	c0.8,0.3-0.9-0.2-2.1,0.1c0-0.1,0.3-0.1,0.3-0.1c-1.9-0.1-2.9,0.2-6.8,0.1c0,0-0.2,0-0.2-0.1c0.3-0.1,0.3-0.1-0.9-0.1
	c0.2,0.2,0.9,0.1,1.2,0.3c-0.2,0.1-0.7,0-1.1,0c0.7,0.1,1.1,0,3.8,0.1c-0.3,0-0.5,0-0.6,0.1c0.9,0,1.5-0.2,4.3,0
	c0.6-0.1,1.3,0,2-0.1c0,0-0.2,0.1-0.2,0.1c0.4,0,0.7-0.1,1.1-0.1c-0.2,0.1,0.3,0.1,0.4,0.2c0.7-0.1,0.2,0.1,1.8-0.1
	c-0.3,0.3,0.6,0,2.6,0.2c0.8-0.2,0.2,0,2.2,0.2c-0.9,0.1-2.7-0.1-3.9,0.1c0.2,0.1,0-0.1,1.2,0.1c-0.2,0.2-1,0-1.4,0.1
	c-0.1,0.1-0.2,0.1-0.7,0.1c0.1,0,0.3,0,0.5,0c-0.3,0,0.2,0.2,0.2,0.1c-0.1,0-0.3-0.1,0.6-0.1c1.2,0.2,1.8,0.1,4.9,0
	c-0.1,0-0.1,0-0.1,0c0.2-0.1,0.8,0,0.8-0.1c0.2,0,0.9-0.2,2.6,0c0.3,0,0.5,0,0.7,0c-0.3,0-0.5,0.1-0.7,0.2c0.4-0.1,1.1,0,1.2-0.2
	c-0.2,0-0.4,0.1-0.5,0c0.3,0,0.6-0.1,0.8-0.1c0,0.1,0.1,0.1,0.3,0.1c0.3,0.3,0-0.3,1.4,0.1c-0.1,0.1-0.5,0.1-0.7,0.2
	c0.5,0,0.6-0.1,1.1-0.1c0.7,0.2,0,0,2.7,0c0,0,0,0,0,0c-0.3,0-0.5-0.2,0,0c0,0,0,0,0,0c0,0,0,0,0,0c0.1,0,0.1,0.1,0.2,0.1
	c0.4,0,0.4-0.2,2.3,0c-0.4-0.3,2.4,0.3,5.4,0.3c-0.6,0.1,0.6,0,0.2,0.1c0.4-0.1,1.2-0.1,1.4-0.1c-0.1,0.1-0.1-0.2,0.4-0.1
	c0.1,0.2,0.4,0,1.1,0.1c-0.1,0-0.2,0-0.3,0.1c0.3,0,0.2,0.1,0.1,0.1c0.3,0,0.6,0.1,0.8,0.1c0-0.1-0.3-0.2,0-0.3
	c-0.3,0-0.3-0.1-0.4-0.2c1.4,0,3.3,0.1,4.5,0.3c0.6,0.2,1.8,0.3,3.6-0.3c1.2-0.2,0.7-0.1,4.2-0.7c-0.2-0.2,0-0.3,0.1-0.3
	c0,0,0.3,0,0.3,0c-0.2,0,0,0,0.2,0c-0.2,0,0.5,0.2,0.6,0.1c-0.3-0.1-1-0.1-0.7-0.3c-0.3,0-0.5,0-0.6-0.1c0.1,0,0.2-0.1,0.4-0.1
	c-0.1-0.1-0.3-0.1-0.4-0.1c0.4-0.2,0.1,0.2,3.2-0.1c-0.1,0-0.4,0.1-0.6,0.2c0.4,0,0.9-0.2,1.2,0c-0.8,0.2-2,0.3-3.2,0.3
	c0.4,0.2,13.4-0.7,5,0.7c1.5,0.5,2.2,0.1,5.8-0.5c-0.3-0.3,0.6-0.4,0.1-0.7c0.2,0,0.3,0,0.4,0c-0.4-0.1,0.6-0.4-0.1-0.6
	c0.3,0,0.3-0.1,0.4-0.2C179.1,17.5,180.8,16.9,176.2,15.4z M158,4.6c0,0.2-0.3,0-0.7,0C157.4,4.6,157.8,4.6,158,4.6z M148.7,4.8
	c0.1,0,0.2,0,0.3,0C148.9,4.8,148.8,4.8,148.7,4.8c-0.2,0-0.3,0.2-1.5,0c0.1-0.1,0.2,0,0.5,0c-0.1-0.1-0.4-0.2-0.8-0.2
	C147.6,4.5,147.2,4.6,148.7,4.8z M66.9,4.1c-0.2-0.1-0.2,0.1-0.8,0C66.3,4.1,66.7,4.1,66.9,4.1C67,4.1,66.9,4.1,66.9,4.1z M74.2,5
	c0.1,0,0.1-0.2,0.7-0.1C74.9,5.1,74.5,5,74.2,5z M11.7,13.1c0.1-0.1,0.9-0.2,0.9,0C12.2,13.1,12.2,13.1,11.7,13.1z M25.3,16.2
	c-0.1-0.1,0.5-0.1,0.2-0.1C25.6,16.1,27.1,16.1,25.3,16.2z M83,10.6c-0.7,0-1.1,0.1-1.7,0.1c0.8-0.1,1.2-0.1,2-0.2
	C83.2,10.6,82.8,10.5,83,10.6z M82.4,5c0.2,0,0.3-0.1-0.1-0.1c0.3,0,0.9,0,1.4,0C83.7,5,83.3,5,82.4,5z M82.6,4.8
	c-0.3-0.1-0.9,0-1.3,0C81.5,4.8,82.3,4.6,82.6,4.8z M81.2,5c-0.2,0-0.4-0.1-0.6-0.1C80.3,4.9,82,4.9,81.2,5z M81.2,4.7
	c-0.2,0.1-0.5,0-1,0.1C80.3,4.7,81,4.8,81.2,4.7z M76.4,5.1c-0.1,0.1-0.9,0-1.3,0C75.6,5.1,75.9,5,76.4,5.1z M52.3,11.7
	c0.6-0.2,1.9,0,2.9-0.1C54.6,11.7,53,11.6,52.3,11.7z M57.7,16.5c0.3-0.1,0.7-0.1,1.2-0.1C58.7,16.5,58.1,16.6,57.7,16.5z
	 M72.7,17.2c0.2,0,0.5,0.1,0.7,0C73.6,17.3,72.6,17.4,72.7,17.2z M73.1,17.5c-0.4,0,1-0.2,1,0C73.8,17.5,73.4,17.5,73.1,17.5z
	 M77.7,17.1c0.5,0,0.9,0,1.5,0C78.8,17.2,78.2,17.2,77.7,17.1z M85.2,11.1c0.2,0.1,0.6,0.1,1.3,0.1c-1.4,0.2-2.3,0.2-3.8,0.1
	c0,0.1,0.6,0.1,0.7,0.2c-1-0.2-0.1,0.3-2.1,0c-0.2-0.1-0.5,0-0.4,0.1c-0.3,0-0.5,0.1-0.9,0c0,0,0,0,0.1,0c-0.9,0-2.7-0.1-4.4,0.1
	c-0.3,0-0.5,0-0.6-0.1c0.2,0.1-1.4,0-1.6,0c-0.4,0-0.3,0.1-0.8,0.1c0-0.4,0.2,0.1-0.7-0.2c0.1,0.1,0,0.1-0.2,0.2c0,0,0,0,0,0
	c0,0,0,0,0,0c-0.2,0.1-0.4,0.1-0.6-0.1c0.3,0,0.4,0,0.6,0.1c0,0,0,0,0,0c0,0-0.1-0.1-0.1-0.1c-0.2,0.1-0.8-0.4-0.9,0.2
	c-0.9-0.2-0.2-0.1-1.4-0.4c-0.6,0.1-0.3,0.3-0.9,0.3c0,0,0.1,0.1,0.3,0.1c0,0.2-4.8,0.1-3.5-0.1c0.5,0,1.2,0.1,1.8,0
	c-0.9,0-1.4-0.1-2.1-0.1c0.1-0.1-0.1,0-1.3,0.1c-0.2,0.1-0.4-0.1-0.7-0.1c0.1,0,0.2,0,0.3,0.1c0.2,0.1-0.7-0.1-0.2,0
	c-1.3,0.1-2.3,0.1-5.2-0.1c-0.9,0.1-1.8,0.1-2.7,0.1c0.8-0.3-0.2,0.1,4.5-0.2c0.1,0.1-0.5,0-0.6,0.1c2.6-0.1,1.5-0.2,7.9-0.2
	c0.2-0.1,0.4,0,1.5,0c-0.2,0.1,0,0.1,0,0.1c-0.4,0-0.6-0.1-1.4,0c0.2,0.1,0.9,0,1.1,0.1c0.3,0,0.7-0.1,1.4-0.4
	c-0.1-0.1-0.4-0.1-0.6-0.1c3.5-0.2,7.3-0.2,12.5-0.3c-0.2,0-0.6-0.1-0.7-0.1c0-0.1,0.5-0.1,1.2-0.1c0,0-0.1,0-0.2,0
	c1,0,2.9-0.3,4.1,0.1c-0.1,0-0.2,0-0.3,0C86.7,10.9,87.8,11.3,85.2,11.1z M84.7,4.9c0.7-0.1,1.7,0,2.9-0.1c0,0,0,0,0,0
	c-0.7,0-0.6-0.4,0,0c0,0,0,0,0,0c0,0,0,0,0,0c0.1,0,0.1,0.1,0.2,0.1C86.6,5,85.8,5.1,84.7,4.9z M86.9,11.1c0-0.1,0.6-0.1,1.1-0.1
	C87.9,11.1,87.3,11.1,86.9,11.1z M95.6,3.2c0.4,0,0.7,0.1,0.7,0.2C96.1,3.4,95.7,3.3,95.6,3.2z M95.8,4.1C96,4,96.5,4,95.9,4
	c0.1-0.1,0.6,0,1,0C96.6,4,96.4,4,95.8,4.1z M97,17.3c0.7-0.3,0,0,1.4-0.1C98.2,17.3,97.5,17.3,97,17.3z M101.1,3.6
	c-0.1,0.1-0.4,0-0.7,0c0,0-0.1,0-0.1,0c0.1,0.1,0.1,0.2-0.3,0.1c0.3-0.2-0.4,0-0.5-0.1c0.4,0,0.4,0,0.7,0c0,0-0.1,0-0.1,0
	c0.1,0,0.2,0,0.3,0c0.2-0.1,0.5-0.2,1.2,0.1C101.5,3.6,101,3.7,101.1,3.6z M112.8,3.1c-0.2,0.1,0,0.1,0.3,0.1c-0.1,0.1-0.6,0-0.9,0
	C112.3,3,112.7,3.1,112.8,3.1z M108.1,17.6c0.3-0.2,0.1-0.1,0.9-0.1C108.9,17.6,108.3,17.6,108.1,17.6z M108.3,3.6
	c0.3-0.1,0.5-0.1,1.8-0.1c0,0.1,0,0.1,0,0.2C109.6,3.6,108.9,3.6,108.3,3.6z M111.3,4c0.1-0.1,0.4,0,0.8,0
	C112.1,4.1,112.2,4,111.3,4z M110.3,3.5c0.5-0.2-0.1,0.1,2.9-0.2C112.6,3.4,112.4,3.6,110.3,3.5z M112.8,3.6
	C112.8,3.5,112.8,3.5,112.8,3.6C112.8,3.5,113.8,3.5,112.8,3.6z M116,3c0,0-0.2,0-0.4,0c-0.1,0.1,0.5-0.1,0.3,0.1
	c-0.1,0-0.4-0.1-0.5-0.1C115.8,3,115.7,2.9,116,3z M115.8,17.8c-0.1-0.1-0.4-0.3,0.4-0.1C116.2,17.7,115.8,17.7,115.8,17.8z
	 M116.7,17.8c-0.1,0,0.3-0.3,0.5,0C117,17.8,116.9,17.8,116.7,17.8z M120.7,3.9C120.7,3.9,120.7,3.9,120.7,3.9
	C120.8,3.8,121.8,3.9,120.7,3.9z M119.6,4.1c0.7-0.1,2.5-0.1,3.2-0.2C122.5,4.2,120.6,4.1,119.6,4.1z M123.7,4
	c0-0.1,0.5-0.1,0.8-0.1C124.3,4,124,3.9,123.7,4z M143.6,6c-0.1,0-0.2,0-0.4,0C143.4,6,143.5,6,143.6,6z M143.5,4.8
	c0.1-0.1-0.2-0.1-0.4-0.1c0.6-0.1,2.1,0,3.2-0.1C145.6,4.9,144.5,4.8,143.5,4.8z M146.7,4.4c-0.5,0.3-0.2,0.1-1.4,0.1
	c0.5,0.1-1.2,0.1-1.3,0C144.8,4.4,146.1,4.6,146.7,4.4z M140.3,4.1C140.3,4.1,140.3,4.2,140.3,4.1c1,0,2.4,0,5.9,0.1
	c0.3,0.1-0.6-0.1-0.7,0.2c-0.3-0.1-4.5,0.4-5.5,0c0.2,0-1.8,0-0.7,0.1c0.1,0-1,0.2-1.4-0.2c0.4-0.1,1.5,0.1,1.7,0
	c-0.7-0.1-2,0-2.4-0.1C138.4,4,139.2,4.1,140.3,4.1z M142.8,4.9c-0.5-0.1-1.1,0-1.9-0.1C141.6,4.7,143.2,4.7,142.8,4.9z M140.4,4.8
	c-0.1-0.1,0.8,0,0.1,0.1C140.1,4.9,140.7,4.8,140.4,4.8z M139.2,4.7c0.4-0.2,0.2-0.2,1.3,0C140,4.6,139.7,4.8,139.2,4.7z M137.5,4.6
	c0.5,0,0.8,0.1,1.4,0.1c-0.3,0.1-0.9,0-1.4,0.1C137.4,4.7,137.5,4.7,137.5,4.6z M135.8,4.4c0,0.2,0.1,0.1-0.6,0.1
	C135.4,4.4,135.7,4.4,135.8,4.4z M132.7,17.9c-0.3-0.1-0.5-0.1-0.9-0.1C132,17.7,132.9,17.7,132.7,17.9z M132.1,5.1
	c0.1-0.1,0.5,0,0.8,0C132.7,5.2,132.5,5.1,132.1,5.1z M131.3,4.7c-0.3,0-0.3,0-0.3,0.1c-0.5,0-0.6-0.1-0.8-0.1
	c2.5-0.3,1-0.1,6.3-0.1c-0.1-0.1-0.9-0.1,0.2,0c0.3-0.1,0.3-0.1,0.2-0.2c0.8,0.2,0.3,0.3-0.9,0.3C136.4,4.7,131.9,4.9,131.3,4.7z
	 M132.3,19.7c0.5-0.1,1.4,0,1.9,0C133.7,19.9,133.9,20,132.3,19.7z M133.3,18.3c0.4-0.3,0,0,1.3,0C134.1,18.3,133.7,18.2,133.3,18.3
	z M135.1,18.3c-0.3,0-0.1,0-0.1,0.1c-0.3,0-0.2-0.1-0.5-0.1c0.8-0.1,1.5,0.1,2.4,0C136.7,18.4,136.8,18.5,135.1,18.3z M137.1,18.4
	c-0.3,0,0.6-0.2,0.7,0C137.6,18.3,137.4,18.4,137.1,18.4z M135.3,6.3c0,0,0-0.1-0.1-0.1c0.4-0.2,2.8,0.1,3.6-0.2
	c0.3-0.2-0.1,0.1,1.2,0.1C138.6,6.5,137.2,6.2,135.3,6.3z M142.6,7.2C142.5,7.2,142.7,7.1,142.6,7.2c0.1-0.2,0.7-0.1,1.1-0.1
	C143.6,7.3,142.8,7.1,142.6,7.2z M142,6.1c0,0-3.2,0.3-1.2,0c-0.3-0.1-1.2,0.1-1.3-0.1c1,0,2.2-0.1,3.4-0.1c0,0,0.1,0,0.2,0
	c-0.2,0.1-0.5,0.1,0.6,0.1C143.5,6.1,143.3,6.5,142,6.1z M149.6,7.3c-1.3,0-0.7,0.2-3.1,0.1c0.1,0.1,2-0.1,1.5,0.2
	c-1,0.1-1.5,0.1-2.3,0c0.2,0,0.4-0.1,0.7-0.1c0.1-0.3-0.4,0.2-0.9-0.1c0-0.1,0.5,0,0.8-0.1c-0.3-0.1-1.1,0-1.3,0
	c0.1,0.1,0.2,0.2-0.2,0.2c0-0.2-0.4-0.2-1-0.3c0.1,0,0.1-0.1,0.1-0.1c0.6,0,4.4,0.1,6.2-0.1c0,0,0,0.1,0.1,0.1
	c-0.2,0.1-0.3,0.2-0.7,0.2C149.5,7.2,149.6,7.2,149.6,7.3z M153.3,20.3c-0.3,0-0.1-0.1-0.4-0.1C152.6,20.1,154.5,20.3,153.3,20.3z
	 M156.9,19.9c-0.3,0-0.7,0-0.9-0.1c0.1,0.1,1.6-0.3,2.2,0.2C158,19.9,157.8,20.3,156.9,19.9z M164.7,18.2c0.3,0,0.7,0,0.6-0.2
	C165.8,17.8,166,18.9,164.7,18.2z M170.1,18.4c0.5,0.1,1-0.1,1.2,0C171,18.5,170.2,18.6,170.1,18.4z M175.1,17.9
	c-0.1,0-0.4,0-0.5-0.1C174.8,17.2,177,17.2,175.1,17.9z M176.7,17.6c-0.1-0.1-0.3-0.1-0.3-0.2C176.4,17.5,177,17.4,176.7,17.6z"/>
</svg>
