<?xml version="1.0" encoding="utf-8"?>
<!-- Generator: Adobe Illustrator 23.1.1, SVG Export Plug-In . SVG Version: 6.00 Build 0)  -->
<svg version="1.2" baseProfile="tiny" id="Layer_1" xmlns="http://www.w3.org/2000/svg" xmlns:xlink="http://www.w3.org/1999/xlink"
	 x="0px" y="0px" viewBox="0 0 187.7 23.5" xml:space="preserve">
<path fill="#FF4200" d="M180.4,5.7c-0.1-0.1-0.1-0.2-0.4-0.2c0.7-0.2-0.3-0.5,0.1-0.6c-0.1,0-0.2,0-0.4,0c0.5-0.3-0.4-0.4-0.1-0.7
	c-3.6-0.6-4.3-1-5.8-0.5c8.4,1.4-4.6,0.5-5,0.7c1.2,0,2.4,0.1,3.2,0.3c-0.3,0.2-0.8,0-1.2,0c0.2,0.1,0.5,0.2,0.6,0.2
	c-3.1-0.3-2.8,0.1-3.2-0.1c0.1,0,0.3,0,0.4-0.1c-0.2,0-0.3-0.1-0.4-0.1c0.1-0.1,0.3-0.1,0.6-0.1c-0.3-0.2,0.4-0.2,0.7-0.3
	c-0.1-0.1-0.8,0.1-0.6,0.1c-0.2,0-0.4,0-0.2,0h-0.3c-0.1,0-0.3-0.1-0.1-0.3c-3.5-0.6-3-0.5-4.2-0.7c-1.8-0.6-3-0.5-3.6-0.3
	c-1.2,0.2-3.1,0.3-4.5,0.3c0.1-0.1,0.1-0.2,0.4-0.2c-0.3-0.1,0-0.2,0-0.3c-0.2,0-0.5,0.1-0.8,0.1c0.1,0,0.2,0.1-0.1,0.1
	c0.1,0.1,0.2,0.1,0.3,0.1c-0.7,0.1-1-0.1-1.1,0.1c-0.5,0.1-0.5-0.2-0.4-0.1c-0.2,0-1,0-1.4-0.1c0.4,0.1-0.8,0-0.2,0.1
	c-3,0-5.8,0.6-5.4,0.3c-1.9,0.2-1.9,0-2.3,0c-0.1,0-0.1,0.1-0.2,0.1l0,0l0,0c-0.5,0.2-0.3,0,0,0l0,0c-2.7,0-2-0.2-2.7,0
	c-0.5,0-0.6-0.1-1.1-0.1c0.2,0.1,0.6,0.1,0.7,0.2c-1.4,0.4-1.1-0.2-1.4,0.1c-0.2,0-0.3,0-0.3,0.1c-0.2,0-0.5-0.1-0.8-0.1
	c0.1-0.1,0.3,0,0.5,0c-0.1-0.2-0.8-0.1-1.2-0.2c0.2,0.1,0.4,0.2,0.7,0.2c-0.2,0-0.4,0-0.7,0c-1.7,0.2-2.4,0-2.6,0
	c0-0.1-0.6,0-0.8-0.1c0,0,0,0,0.1,0c-3.1-0.1-3.7-0.2-4.9,0c-0.9,0-0.7-0.1-0.6-0.1c0-0.1-0.5,0.1-0.2,0.1c-0.2,0-0.4,0-0.5,0
	c0.5,0,0.6,0,0.7,0.1c0.4,0.1,1.2-0.1,1.4,0.1c-1.2,0.2-1,0-1.2,0.1c1.2,0.2,3,0,3.9,0.1c-2,0.2-1.4,0.4-2.2,0.2
	c-2,0.2-2.9-0.1-2.6,0.2c-1.6-0.2-1.1,0-1.8-0.1c-0.1,0.1-0.6,0.1-0.4,0.2c-0.4,0-0.7-0.1-1.1-0.1l0.2,0.1c-0.7-0.1-1.4,0-2-0.1
	c-2.8,0.2-3.4,0-4.3,0c0.1,0.1,0.3,0.1,0.6,0.1c-2.7,0.1-3.1,0-3.8,0.1c0.4,0,0.9-0.1,1.1,0c-0.3,0.2-1,0.1-1.2,0.3
	c1.2,0,1.2,0,0.9-0.1c0-0.1,0.2-0.1,0.2-0.1c3.9-0.1,4.9,0.2,6.8,0.1c0,0-0.3,0-0.3-0.1c1.2,0.3,2.9-0.2,2.1,0.1
	c2.4-0.2,2.9-0.1,4-0.2c1.2,0.3,1,0.1,0.7,0.1c0.4-0.1,0.9-0.1,1.6,0c-1.1,0.1-0.5,0.1-0.5,0.3c0.8,0,0.5,0.2,0.9,0.1
	c-0.1,0.1-0.2,0.1-0.4,0.1c0.2,0.1,0.7,0.1,1.2,0.1c-0.1,0.2-0.4-0.1-0.9,0l0.2,0.1c-3,0.3-2.3,0.3-3.9,0.4c0.3,0,0.7,0,0.7,0.1
	c0.2,0,0.3,0,0,0l0,0c-0.4,0-1.4,0.1-1.3,0s0.3,0,0.5,0c-0.1,0-0.1,0-0.1-0.1c-2.2,0.5-2.2-0.1-2.9,0.2c-0.3,0.1-0.3,0-0.6,0
	c0.1-0.1,0.2-0.1,0.3-0.1c-4.3,0-2.9,0.1-4,0c-2.2,0.5-2,0-2.5,0.1c1.3-0.2-1.3,0-0.5,0.1c-0.4-0.1-0.7-0.1-1-0.1
	c0.2-0.1,0.5,0,0.5-0.1c3-0.1,2.4-0.1,3.7,0c1.3-0.1,0.9-0.1,1-0.6c-1.6-0.4-1.4,0-1.9-0.1c0.4,0.2-1.2,0.1-0.9,0
	c-1.1,0.3-2.3,0.1-1.9,0.1c-5.1-0.1-3.5,0.1-5.9,0.1c-1,0.3-0.7-0.1-1.1,0.1c0.8,0,1.2,0.1,2.2,0.1c-0.4,0.2-1.2,0-1.5,0.2
	c-1.1,0-1.6-0.2-1.7,0c2.3,0.1,1.2,0,2.2,0.2c-3.5-0.1-3.6,0.1-4.8-0.1c-3,0.2-2.3-0.2-2.6,0c1.2,0.2,2.1,0,2.9,0.2
	c0,0.1-0.7,0-0.4,0.1c-6.5-0.2-8.5,0-11,0c0,0,0.2,0,0.3,0c0,0-0.1,0-0.2,0c-2,0.1-7,0-7.6-0.1c-0.3,0-1.4,0.2-1.9,0l0.2,0.1
	c-0.7-0.1-0.6-0.2-0.6,0c-2.5,0-1.4,0-2.4-0.2c0.1,0,0.1,0.1,0.2,0.1c0,0.1-0.3,0-0.3,0.1c-6-0.3-4.8,0.1-5.9,0
	c-1.2,0.3-0.7-0.1-1.5,0.2c0.3-0.1,0.2,0,0.7,0c-1.3,0-1.1,0-0.7-0.1c-1.9-0.1-2,0.3-2.4-0.1c0.6,0,1.5,0.1,2-0.1
	C72.1,5.8,71.4,5.9,71,6c0.1,0,0.1,0,0.2,0c0.1,0,0.1-0.1,0.3,0c-0.1,0-0.2,0-0.3,0S71.1,6,71,6l0,0c-0.2,0-0.2,0-0.2-0.1
	c-3-0.1-4.7-0.2-5.4,0c-3.4,0-5,0-5.7-0.2c-1.4,0-0.2,0.1-0.8,0.2c0.2,0,0.6-0.2,1.1-0.1c-0.1,0.1-0.4,0.1-0.6,0.1
	c0.1,0.1,0.4,0,0.6,0C59.7,6,59.1,6,58.6,6c5.4-0.1,6.1,0.2,8.6,0C68,6.3,68,6.2,68.3,6.1c1.8,0.1,3,0.1,3.5,0.1
	c-3.5,0.2-3.2-0.2-3.2,0.3c-4.6-0.1-4.7,0.1-4.3,0.1c-0.4,0-0.9,0.1-1.6,0c0.1,0,0.5,0,0.7,0c-0.1-0.2-0.7-0.1-1.2-0.1
	c0.1,0.1,0.2,0.1,0.4,0.1c-2.1,0.1-1.6,0.2-2.3,0c-1.4,0-1.1,0-1.9,0c0.5,0.1,1.1,0,1.9,0.1c-0.4,0.2-0.9,0.2-1.3,0.1
	c-2.4,0.1-4,0.4-5.2,0.2c-0.5,0.1-3.9,0-4.5,0.1c-4.2-0.1-5.4,0-6.2,0c0,0,0.1,0,0.2,0c-2.7,0-5.3,0.1-7.6,0c0.5,0.2-1.2,0-0.6,0
	c-2.1,0.1-4.7-0.2-5.4,0.1c-2.7,0-1.8-0.3-2.7,0c-1.9-0.1-2.3,0.1-2.7,0c-0.8,0.2-1.2,0.1-1.3,0.1c0,0,0.1,0,0.2,0.1
	c-2.8,0.2-3.9,0-2.9,0.2c-9-0.3-8.5,0.5-11.7,0.2c0,0,0.2,0,0.3,0c-0.6-0.1-1.5,0-2.2,0c1.9,0.1,1.2,0,1.9,0.1
	C6.2,8,2.5,8.1,1.5,8.2c0.3,0,0.1,0.1-0.2,0.1c0.7,0,0.5-0.1,1.2,0c-0.2,0-0.2,0.1-0.6,0.1c0.5-0.1,0-0.1-0.4-0.1
	c2,0.4,2.9,0.1,3.4,0.3C3.1,8.7,4.4,8.5,3.6,8.5C3.1,8.8,4.1,8.7,4,8.7c-1.8,0.1-1.1,0-0.6,0.1c-0.2,0.2-0.6,0-1,0.1
	C4.8,9,4.8,9.1,5.8,9.2L5.6,9.1c0.6,0,0.8,0.2,1,0.3c-0.2,0-0.4-0.1-0.6,0C7.4,10,8.5,9.6,8.1,9.8c3.7,0.2,3.1,0.1,3.8,0.2
	c-1.9,0.1-0.8,0-0.4,0.3c-0.5,0.1-1.1-0.1-1.5,0c4,0.4,3.6,0,3.4,0.1c0.3,0,1.3-0.2,1.3,0.1c1.8,0,3.3,0.1,5.4,0.2c0,0-0.4,0-0.6,0
	c0.7,0,3.8-0.1,4,0.2c0.6-0.1,1.1,0.1,1.7,0c-0.1,0.3-1.3,0.1-1.9,0.2c3.2,0.2,4.4,0.1,5.7,0.1c0,0-0.1,0.1-0.3,0.1
	c1.9-0.1,2.8-0.1,3.2,0c8.6-0.2,10.1-0.3,11.9,0c5.6,0.1,6.2,0,7.8,0.1c-0.3,0.3-2.1,0-2.2,0.2c0.5-0.1,0.9,0,1.3,0
	c-0.2,0.1-0.9,0-1.1,0v0.1c-0.1,0-0.3,0-0.6,0c-0.4-0.4-1.3-0.1-1-0.1c-1-0.2-0.6,0.1-1.1,0c-0.4-0.3-1.3,0.1-1.3-0.1
	c0,0.1-0.2,0.1-0.3,0.1l0,0c-6.2,0-10.6,0.1-14.3-0.1c-4,0.2-5-0.1-6.2,0c0.1,0.1-0.5,0-0.5,0.1c-3.4-0.2-6.7-0.1-10-0.1
	c6.4,0.2,11.4,0,14.5,0.2c0.5-0.1,1.3,0,1.9,0.1v-0.1c0.8,0.1,1.8,0.1,2.6,0c-0.1,0.1-0.2,0.1-0.2,0.2c3.4-0.4,5.3-0.1,5.2-0.2
	c5.3,0.1,10.3,0.1,13.2,0.3c1.7-0.2,3.9,0,5.4,0.1V12c1.3,0.2,3.3,0.2,4.7,0.1c0,0-0.1,0-0.2,0c2.3,0,1.7,0,2.3,0
	c5.7,0.3,5.8,0.2,6.7,0.3c-4.8,0.4-5.4,0-7.6,0.1c2.1,0.2,1.8,0.2,2.8,0.2c-1.8,0.1-0.9-0.1-1.7,0.1c0.6,0,1.3,0,2.1,0.1
	c-0.1,0.1-1,0.1-1.4,0l0.2,0.1c-0.5,0-0.4-0.1-0.8-0.1c0.2,0.1,0.5,0.2,0.9,0.2c-1.9-0.2-1.7,0-2.8,0c1.9,0.1,1.8,0,2.3,0.1
	c0.8,0,0.6-0.2,1.9-0.1c-2.2,0.3-2.5,0.1-2.8,0.2c0.6,0,1.2,0.1,1.8,0.1c0.1,0,0.2,0,0.3,0c-0.9-0.2,0.8,0,0.3,0
	c1.8,0,1,0.2,1.8,0.1c0,0.1-0.3,0.1-0.3,0.1s0.1,0,0.2,0c-0.2,0-0.2,0-0.2,0c-0.7,0-1.4-0.1-2.1-0.1c-0.7,0-1.4-0.1-1.8-0.1
	c0.1,0,0.1,0,0.1,0c-7.5-0.3-15.2,0-21.2-0.2c0,0.1,0.8,0.2,0.1,0.2c-0.1,0.6-2.3,0-2.1,0.3c-0.5,0-0.8,0-1.1,0c0,0-0.1,0-0.2,0.1
	c0.8,0.1,0.5,0,0.7,0.2c-5.3-0.1-13.3-0.4-10.6,0.3c-0.7,0.5-1.4-0.2-1.2,0.2c-0.9,0-1.4,0.2-2,0.2c2.7-0.3,2.4,0,1.5,0.2
	c2.2,0.2,2.3-0.2,2.9,0.2c6.7,0.2,12.4,0.5,16.3,0.5c-4,0.2-6.3-0.1-8.4,0.1c2.1,0.1,1.7,0.2,2.8,0.3v-0.1c0.7,0.1,0.5,0,0.5,0.2
	c1.8,0.1,1.4-0.2,1.8,0c1.3,0.1,0.6,0,0.8,0.2c-0.7,0-1.2,0.1-2.2,0.4c0.1,0.1,1.3,0,1.5,0.1c-0.6,0.1-1.5,0-2.2,0
	c0.2,0.1,0.5,0.1,0.9,0.1c0,0-0.1,0-0.2,0c0,0,0.2,0,0.3,0c-0.9,0-1.1,0.1-2.1,0.1c0.1,0.3-1,0-1.1,0.2c2.8,0.1,3.3,0,4.1,0.1
	c5.2,0.3,7.4-0.3,10.8,0l-0.2-0.1c6.5,0.5,3.8,0.6,5.9,0.4c0.4,0,0.7,0,1.3,0c-0.6,0.4-0.6-0.1-0.9,0.1c1.2,0.3,1.1,0.2,0.8,0.1
	c0-0.2,0.8-0.2,1.1-0.1c0,0-0.2,0-0.3,0c0.2,0.1,0.2,0.2,0.5,0.2c0.9-0.5,1.5-0.2,1.7-0.2c-1.8,0.1,0.4,0.1,0.2,0.2
	c1.6,0,3.5-0.1,3.2,0c0.1,0.1,1-0.2,1.3,0c0.2-0.1,0.4,0.1,0.4-0.1c0.3,0.1,0.6,0.1,0.9,0.2c0,0,0.1-0.1,0.5-0.1
	c-0.5,0.1,0.5,0.1,0.5,0c0.1,0,0.5,0.1,0.2,0.1c0.7,0,1.3,0,1.7,0l0,0c-0.1,0-0.3,0-0.3,0c0.2-0.1,0.3,0,0.4,0
	c1.4,0.1,1.1,0.1,1.9,0.2c-0.5,0-1.2,0-2,0c0-0.1,0.6,0,0.6-0.1c-0.2,0.1-0.3,0-0.4,0s-0.1,0-0.2,0c-0.2,0.1-0.8,0.2-1.5,0.2
	c2.5,0,2.2,0,2.9,0.3c1.9,0.2,3.9-0.1,4.5,0.1c0,0-0.3,0-0.4,0c0.3,0,0.2,0,0.3,0.1c0,0,0.5,0,0.2,0c0.3,0,0.8-0.2,1.1-0.1
	c-0.1-0.2,0.2-0.1,0.3-0.1c-0.1,0.1-0.1,0.1-0.2,0.1c3.4,0.1,4.2-0.1,4.6,0c2.4-0.1,3.7,0.1,3.9-0.1c1.2,0.4,1.9-0.1,1.8,0.3
	c0.5-0.2,1.4,0,1.3-0.1c0.6,0.2,0.4,0,0.7,0.2c0.2,0,0-0.1,0-0.1c0.7,0.1,1.6,0,2.3,0.1c-0.1-0.1-0.1-0.1,0.1-0.1
	c0,0.1,0.6,0.1,0.3,0.2c0.8,0.1,0.5,0,0.7,0.2c-0.5,0-1.2,0-0.9-0.4c-2,0.1-1-0.2-2-0.1c0.9,0.2-4,0.1-2.8,0
	c-2.5,0.1-1.5,0.2-2.9,0.1c0.4-0.1,0.6-0.1,1.1-0.1c-0.4-0.1-1.1,0.1-1.5,0c0.1,0.1,0.1,0.1,0.3,0.1C86.1,19,86,19,85.7,19l0,0
	c-10.3-0.2-13-0.2-15-0.2c0.2,0.1-2.9-0.2-3.1-0.1c0.6,0.2-0.5-0.2-0.5,0c0,0.1,0.2,0.1,0.4,0.1c-0.4,0.1-1-0.1-1.2,0
	c0-0.1,0-0.1,0.1-0.1c-2.1,0-2.3,0.1-2.9-0.2c0.3,0.2-1.6,0.1-2.1,0.1c0.1,0.2,1.1,0.1,1.2,0.2c-6.9-0.4-6.7,0-9.4-0.2
	c-1,0-1.5,0-1.7,0c-0.3,0.2-1,0.2-1.5,0.2c0.1,0.1,0.6,0.1,0.6,0.2c0.7-0.1,1.2,0,2.1,0c5,0,3.6,0.1,6.6,0.1c2.2-0.2,3.6,0,5.4,0
	c-0.1,0-0.2-0.1-0.2-0.1c0.4,0,0.8,0.1,1.1,0.2c0,0,1.1-0.1,1.2,0.1c2.5-0.2,3.6,0.2,4.8-0.1c0.1,0.1,0.3,0.1,0.3,0
	c0.2,0.1,0.7,0,0.7,0.1c8.2,0.1,8.5,0.1,10.9,0.4C83,20,88.6,20,89.7,20c0.6,0.1,1.7,0.1,1.8-0.1c0.2,0.2,0.7,0,1.2,0.1
	c-0.1-0.3,1-0.2,1.4-0.1c-0.3,0.2-0.9,0.1-1.3,0.1c2.6,0.2,4.3,0.1,4.7,0.2c1.9,0,5.3,0.4,6.5,0.2c-0.5-0.1,0.1-0.1,0.4-0.1
	c-0.1,0-0.3,0-0.2-0.1c-0.5,0-0.8,0.1-0.8-0.1c-0.4,0.2-0.8-0.1-1.4-0.1c1.2,0,1,0,1.5,0c0-0.1-0.3-0.1-0.4-0.1c0.2-0.1,0.7,0,0.9,0
	c0,0-0.1,0-0.2,0c0.2,0.1,0.9,0.1,0.6,0c0.9,0.2,0.7,0,0.7,0c0.2,0,0.2,0.1,0,0.1c0.3,0,0.4-0.1,0.9-0.1c-0.6,0.2,0.6-0.1,0.8,0
	c-0.1,0-0.1,0.1-0.1,0.1c2.5-0.1,2,0,2.7,0.1c0.4-0.3,0.5,0,0.6-0.1c-0.1,0.1-0.2,0.1-0.3,0.1c0.1,0,0.4-0.1,0.6,0
	c0.4-0.6,2.7,0.4,3.5,0.2c0.3-0.1,1.5-0.1,1.9,0c0.4-0.2,1.2-0.1,1.1-0.2c0.3,0.2,0.5,0,0.3-0.1c0.9,0.1,2.5,0.2,2.1,0
	c0.3,0.2,0.5-0.2,0.5-0.1c-0.4,0-0.3-0.1-0.7-0.1c0.5-0.1,0.9,0,1.5,0c-0.1,0.1-0.3,0.1-0.7,0.1c0.2,0.1,0.4,0.1,0.7,0.1
	c0,0,0.1,0,0.1-0.1c1.8,0,3.1,0.1,3.9,0.2c-0.4-0.1-0.2-0.1-0.6-0.2h0.2c-0.1-0.3,1-0.2,1.6-0.1c-0.2-0.1-0.6-0.2-0.9-0.2
	c0.2,0,0.8-0.1,0.7,0.1c1,0,1.4-0.2,2-0.1c2.5-0.2,3.7,0.2,4.9,0c-0.2-0.1-0.3,0-0.5,0c0.1-0.1,0.8-0.1,1.2-0.1c2.3,0.1,2-0.1,2,0.1
	c0.3,0.2,0.7,0,1.2,0.1c3.8-0.3,6.3,0.3,8.2-0.1c1.5,0.3,1.9,0.5,2.3,0.4c-0.1-0.2-0.6-0.1-0.9-0.2c0.4-0.1,0.9-0.2,1.3-0.1
	c-0.1,0-0.1-0.1-0.1-0.1c4.1,0.3,5.4,0.1,6.9,0.2c2.1-0.1,3.5,0,5.5-0.1c0,0-0.2,0-0.3,0c0.1-0.1,0.3,0,0.5,0c0,0.1-0.1,0.1-0.2,0.1
	c1.5,0,0.5-0.2,1.5-0.1c-0.6-0.4,0-0.1,0.2-0.1c1.3-0.3,0.3-0.3,0.2-0.4c2.7,0.1,5,0.3,4.9,0.2s-0.4-0.1-0.5-0.1c0,0,0.2,0,0.2-0.1
	c3.3-0.1,4.9,0,6-0.1c-6.3,0-11.9,0.3-14.6,0.1c0.3,0.2-1.1,0.1-1.4,0.1c0-0.1,0.4-0.1,0.7-0.1c-1-0.2-2.3,0.1-3.5,0
	c0,0.1-0.3,0-0.3,0.1c-5.4-0.1-3.9,0-6.3-0.1c0.1,0,0.1,0,0.1-0.1c0.7,0,0.5,0,0.9,0c-0.2,0-0.5,0-0.6,0.1c1,0,0.5-0.1,1.2-0.2
	c-0.2,0-0.3-0.1-0.6-0.1c0-0.2,2.2-0.1,1.2-0.1c0.3,0.1,1.2,0,1,0.1c1.8-0.2,1.8,0.1,2.3,0.1v-0.1c0.3,0,0.8,0.2,0.9,0
	c-1.1-0.2,5.6-0.1,5.9-0.1v-0.1c0.3,0.1,0.6,0,1,0c-0.5,0-0.2-0.1-0.8-0.1c0.5,0,1.1,0,1.5-0.1c0,0.1,0,0.1-0.1,0.1
	c1.5-0.2,1.4,0,1.3,0c0.7,0,1.4,0,2.2,0c0-0.1-0.4-0.1-0.2-0.2c-2.1,0-1.2,0.1-2.2,0c2.3,0,2.5,0,1.9-0.2c-0.1,0-0.2,0.1-0.2,0.1
	c-0.2,0-0.9,0-0.2-0.2c-2.2,0.1-3.4-0.2-3.9-0.1c0,0.1,0.1,0.1,0.1,0.1c-1.2-0.2-0.7,0.1-1.2-0.2c-0.6,0-1.7,0-2.4-0.1
	c-2.2,0.2-2.5,0-3.6,0l0.1,0.1c-3.1-0.1-7.7,0.2-7.1-0.4c-1.8-0.2-1.3-0.2-0.7-0.2c6.2,0.1,6.6,0.1,8.6,0c3-0.4,6.3,0.2,7.3-0.1
	c0.2,0,0.3,0,0.3,0.1c0.4-0.1,1.6,0,1.5-0.2c0.2,0,0.3,0.1,0.7,0.1c-0.1-0.1,0-0.1,0-0.2c-0.4,0-0.4,0-0.6-0.1
	c1.5-0.2,1.5-0.2,1.6,0c3.1-0.4,3.3-0.1,3.4-0.4c0,0.2,0,0,0.2,0c-0.8,0-1.3,0.3-2,0.1c-3.6,0.3-2.4,0.2-3.4,0.2
	c0.1,0-0.1,0-0.1,0.1c-6.2,0.3-6,0.1-8.1,0.1c0.1-0.2,0.4-0.3-0.1-0.5c0-0.1,0.1-0.1,0.1-0.1c0.3,0.1,0.8,0.1,1,0
	c-0.5,0-0.9-0.1-1.4-0.1c0-0.1-0.3-0.1-0.6-0.2c0.1,0,0.4-0.1,0.6-0.1c-0.5-0.1-0.7,0-1-0.1c2.4,0.1,3.3-0.2,3.3,0
	c2.5-0.1,2,0,2.7,0.1c-1.2,0.2-1,0.2-0.8,0.3c0.1-0.1,0.1-0.1,0.2-0.1l0,0l0,0c0.6-0.2,0.3-0.2,0.8-0.1c-0.2,0.1-0.4,0.1-0.8,0.1
	l0,0c1.3,0-0.2,0.2-0.4,0.2c5.1,0.1,4.5-0.5,2.6-0.6c2.2,0,1.7,0.2,1.6-0.1c-0.3,0-0.6,0-0.7-0.1c0.2,0,0.8-0.1,0.8,0.1
	c0.5-0.1,0.9-0.1,1.3-0.1c0-0.1-0.3-0.1-0.4-0.2c0.1-0.1,0.2-0.1,0.4-0.1c-0.4,0-0.4-0.1-0.7-0.2c0.5-0.3-0.1-0.1,0.7-0.2
	c2.4-0.2,1.7-0.1,2,0.3c2-0.1,1.7,0,2.5,0c-0.2-0.2,1.2,0.3,2.2,0.2c-2.9,0.2-3.9,0-4.9,0.1c5.9,0.3,17.7,0.8,12.6,0
	c2.3-0.4,2.6-0.3,3.5-0.5c-0.1-0.1-0.3-0.2-0.6-0.2c0.4,0,0.7-0.1,1.5-0.1c-0.4,0,0.1-0.1-0.1-0.1c-0.1,0-0.1,0-0.2,0
	c0.1,0,0.2,0,0.2,0c1.3,0.1,1.2,0,1.5-0.2c0.5,0.1,0.2,0,0.3-0.1c-0.6,0-0.7,0.3-1.4,0.3c0.8-0.1,0.4-0.1,0.2-0.2
	c2.2-0.5,1.6,0,2.3-0.6c-0.1,0-0.3,0-0.4,0c0.2,0,0.3-0.1-0.1-0.1c0.2-0.2,0.6-0.3,0.9-0.4c1.6-0.9-1.1-0.7-0.9-0.9
	c-3.5-0.5-2.4-0.9-4.1-0.6c-1.3-0.1-2,0.4-3.5,0.2c0.4-0.2,1.5-0.2,1.6-0.5c-0.9-0.1,0.5-0.2-0.4-0.2c0.3-0.2-0.7-0.2-0.5-0.5
	c-0.4,0-0.7,0-0.7-0.1c-3.5,0-2.2,0.5-3.7,0.5c0.1,0.1,0.2,0.1,0.3,0.1c-3.7,0.5-3.1,0.2-3.2,0.1c0.5,0.1,0.5-0.1,0.6-0.1
	c-0.5,0-0.1-0.1-0.3-0.2c1.1,0.4,1.1-0.2,0.9-0.1c0.1,0,0.1-0.1,0.1-0.1c0.2,0,0.1,0,0.4,0l0.1-0.1c-0.2-0.1,0.1-0.2,0.6-0.2
	c-0.3-0.2,0.2-0.3,0.5-0.3c-0.1,0-0.2,0-0.3,0c2.1-0.3,3-1,2-1c1.6-0.7,0.8-0.4,1.5-0.8c0-0.1-0.2-0.1-0.4-0.1
	c0-0.1,0.2-0.1,0.4-0.1c-0.3-0.1,0.4-0.3,0.2-0.4C180.8,6.4,179.1,5.8,180.4,5.7z"/>
</svg>
