<?xml version="1.0" encoding="utf-8"?>
<!-- Generator: Adobe Illustrator 23.1.1, SVG Export Plug-In . SVG Version: 6.00 Build 0)  -->
<svg version="1.2" baseProfile="tiny" id="Layer_1" xmlns="http://www.w3.org/2000/svg" xmlns:xlink="http://www.w3.org/1999/xlink"
	 x="0px" y="0px" viewBox="0 0 187.7 23.5" xml:space="preserve">
<path fill="#FF4200" d="M6.4,17.6c0.1,0.1,0.1,0.2,0.4,0.2c-0.7,0.2,0.3,0.5-0.1,0.6c0.1,0,0.2,0,0.4,0c-0.5,0.3,0.4,0.4,0.1,0.7
	c3.6,0.6,4.3,1,5.8,0.5c-8.4-1.4,4.6-0.5,5-0.7c-1.2,0-2.4-0.1-3.2-0.3c0.3-0.2,0.8,0,1.2,0c-0.2-0.1-0.5-0.2-0.6-0.2
	c3.1,0.3,2.8-0.1,3.2,0.1c-0.1,0-0.3,0-0.4,0.1c0.2,0,0.3,0.1,0.4,0.1c-0.1,0.1-0.3,0.1-0.6,0.1c0.3,0.2-0.4,0.2-0.7,0.3
	c0.1,0.1,0.8-0.1,0.6-0.1c0.2,0,0.4,0,0.2,0h0.3c0.1,0,0.3,0.1,0.1,0.3c3.5,0.6,3,0.5,4.2,0.7c1.8,0.6,3,0.5,3.6,0.3
	c1.2-0.2,3.1-0.3,4.5-0.3c-0.1,0.1-0.1,0.2-0.4,0.2c0.3,0.1,0,0.2,0,0.3c0.2,0,0.5-0.1,0.8-0.1c-0.1,0-0.2-0.1,0.1-0.1
	c-0.1-0.1-0.2-0.1-0.3-0.1c0.7-0.1,1,0.1,1.1-0.1c0.5-0.1,0.5,0.2,0.4,0.1c0.2,0,1,0,1.4,0.1c-0.4-0.1,0.8,0,0.2-0.1
	c3,0,5.8-0.6,5.4-0.3c1.9-0.2,1.9,0,2.3,0c0.1,0,0.1-0.1,0.2-0.1l0,0l0,0c0.5-0.2,0.3,0,0,0l0,0c2.7,0,2,0.2,2.7,0
	c0.5,0,0.6,0.1,1.1,0.1c-0.2-0.1-0.6-0.1-0.7-0.2c1.4-0.4,1.1,0.2,1.4-0.1c0.2,0,0.3,0,0.3-0.1c0.2,0,0.5,0.1,0.8,0.1
	c-0.1,0.1-0.3,0-0.5,0c0.1,0.2,0.8,0.1,1.2,0.2c-0.2-0.1-0.4-0.2-0.7-0.2c0.2,0,0.4,0,0.7,0c1.7-0.2,2.4,0,2.6,0
	c0,0.1,0.6,0,0.8,0.1c0,0,0,0-0.1,0c3.1,0.1,3.7,0.2,4.9,0c0.9,0,0.7,0.1,0.6,0.1c0,0.1,0.5-0.1,0.2-0.1c0.2,0,0.4,0,0.5,0
	c-0.5,0-0.6,0-0.7-0.1c-0.4-0.1-1.2,0.1-1.4-0.1c1.2-0.2,1,0,1.2-0.1c-1.2-0.2-3,0-3.9-0.1c2-0.2,1.4-0.4,2.2-0.2
	c2-0.2,2.9,0.1,2.6-0.2c1.6,0.2,1.1,0,1.8,0.1c0.1-0.1,0.6-0.1,0.4-0.2c0.4,0,0.7,0.1,1.1,0.1l-0.2-0.1c0.7,0.1,1.4,0,2,0.1
	c2.8-0.2,3.4,0,4.3,0c-0.1-0.1-0.3-0.1-0.6-0.1c2.7-0.1,3.1,0,3.8-0.1c-0.4,0-0.9,0.1-1.1,0c0.3-0.2,1-0.1,1.2-0.3
	c-1.2,0-1.2,0-0.9,0.1c0,0.1-0.2,0.1-0.2,0.1c-3.9,0.1-4.9-0.2-6.8-0.1c0,0,0.3,0,0.3,0.1c-1.2-0.3-2.9,0.2-2.1-0.1
	c-2.4,0.2-2.9,0.1-4,0.2c-1.2-0.3-1-0.1-0.7-0.1c-0.4,0.1-0.9,0.1-1.6,0c1.1-0.1,0.5-0.1,0.5-0.3c-0.8,0-0.5-0.2-0.9-0.1
	c0.1-0.1,0.2-0.1,0.4-0.1C54.3,18,53.8,18,53.3,18c0.1-0.2,0.4,0.1,0.9,0L54,17.9c3-0.3,2.3-0.3,3.9-0.4c-0.3,0-0.7,0-0.7-0.1
	c-0.2,0-0.3,0,0,0l0,0c0.4,0,1.4-0.1,1.3,0s-0.3,0-0.5,0c0.1,0,0.1,0,0.1,0.1c2.2-0.5,2.2,0.1,2.9-0.2c0.3-0.1,0.3,0,0.6,0
	c-0.1,0.1-0.2,0.1-0.3,0.1c4.3,0,2.9-0.1,4,0c2.2-0.5,2,0,2.5-0.1c-1.3,0.2,1.3,0,0.5-0.1c0.4,0.1,0.7,0.1,1,0.1
	c-0.2,0.1-0.5,0-0.5,0.1c-3,0.1-2.4,0.1-3.7,0c-1.3,0.1-0.9,0.1-1,0.6c1.6,0.4,1.4,0,1.9,0.1c-0.4-0.2,1.2-0.1,0.9,0
	c1.1-0.3,2.3-0.1,1.9-0.1c5.1,0.1,3.5-0.1,5.9-0.1c1-0.3,0.7,0.1,1.1-0.1c-0.8,0-1.2-0.1-2.2-0.1c0.4-0.2,1.2,0,1.5-0.2
	c1.1,0,1.6,0.2,1.7,0c-2.3-0.1-1.2,0-2.2-0.2c3.5,0.1,3.6-0.1,4.8,0.1c3-0.2,2.3,0.2,2.6,0c-1.2-0.2-2.1,0-2.9-0.2
	c0-0.1,0.7,0,0.4-0.1c6.5,0.2,8.5,0,11,0c0,0-0.2,0-0.3,0c0,0,0.1,0,0.2,0c2-0.1,7,0,7.6,0.1c0.3,0,1.4-0.2,1.9,0l-0.2-0.1
	c0.7,0.1,0.6,0.2,0.6,0c2.5,0,1.4,0,2.4,0.2c-0.1,0-0.1-0.1-0.2-0.1c0-0.1,0.3,0,0.3-0.1c6,0.3,4.8-0.1,5.9,0
	c1.2-0.3,0.7,0.1,1.5-0.2c-0.3,0.1-0.2,0-0.7,0c1.3,0,1.1,0,0.7,0.1c1.9,0.1,2-0.3,2.4,0.1c-0.6,0-1.5-0.1-2,0.1
	c4.1,0.3,4.8,0.2,5.2,0.1c-0.1,0-0.1,0-0.2,0c-0.1,0-0.1,0.1-0.3,0c0.1,0,0.2,0,0.3,0s0.1,0,0.2,0l0,0c0.2,0,0.2,0,0.2,0.1
	c3,0.1,4.7,0.2,5.4,0c3.4,0,5,0,5.7,0.2c1.4,0,0.2-0.1,0.8-0.2c-0.2,0-0.6,0.2-1.1,0.1c0.1-0.1,0.4-0.1,0.6-0.1
	c-0.1-0.1-0.4,0-0.6,0c0.3-0.1,0.9-0.1,1.4-0.1c-5.4,0.1-6.1-0.2-8.6,0c-0.8-0.3-0.8-0.2-1.1-0.1c-1.8-0.1-3-0.1-3.5-0.1
	c3.5-0.2,3.2,0.2,3.2-0.3c4.6,0.1,4.7-0.1,4.3-0.1c0.4,0,0.9-0.1,1.6,0c-0.1,0-0.5,0-0.7,0c0.1,0.2,0.7,0.1,1.2,0.1
	c-0.1-0.1-0.2-0.1-0.4-0.1c2.1-0.1,1.6-0.2,2.3,0c1.4,0,1.1,0,1.9,0c-0.5-0.1-1.1,0-1.9-0.1c0.4-0.2,0.9-0.2,1.3-0.1
	c2.4-0.1,4-0.4,5.2-0.2c0.5-0.1,3.9,0,4.5-0.1c4.2,0.1,5.4,0,6.2,0c0,0-0.1,0-0.2,0c2.7,0,5.3-0.1,7.6,0c-0.5-0.2,1.2,0,0.6,0
	c2.1-0.1,4.7,0.2,5.4-0.1c2.7,0,1.8,0.3,2.7,0c1.9,0.1,2.3-0.1,2.7,0c0.8-0.2,1.2-0.1,1.3-0.1c0,0-0.1,0-0.2-0.1
	c2.8-0.2,3.9,0,2.9-0.2c9,0.3,8.5-0.5,11.7-0.2c0,0-0.2,0-0.3,0c0.6,0.1,1.5,0,2.2,0c-1.9-0.1-1.2,0-1.9-0.1
	c2.4-0.1,6.1-0.2,7.1-0.3c-0.3,0-0.1-0.1,0.2-0.1c-0.7,0-0.5,0.1-1.2,0c0.2,0,0.2-0.1,0.6-0.1c-0.5,0.1,0,0.1,0.4,0.1
	c-2-0.4-2.9-0.1-3.4-0.3c1.8-0.1,0.5,0.1,1.3,0.1c0.5-0.3-0.5-0.2-0.4-0.2c1.8-0.1,1.1,0,0.6-0.1c0.2-0.2,0.6,0,1-0.1
	c-2.4-0.1-2.4-0.2-3.4-0.3l0.2,0.1c-0.6,0-0.8-0.2-1-0.3c0.2,0,0.4,0.1,0.6,0c-1.4-0.6-2.5-0.2-2.1-0.4c-3.7-0.2-3.1-0.1-3.8-0.2
	c1.9-0.1,0.8,0,0.4-0.3c0.5-0.1,1.1,0.1,1.5,0c-4-0.4-3.6,0-3.4-0.1c-0.3,0-1.3,0.2-1.3-0.1c-1.8,0-3.3-0.1-5.4-0.2c0,0,0.4,0,0.6,0
	c-0.7,0-3.8,0.1-4-0.2c-0.6,0.1-1.1-0.1-1.7,0c0.1-0.3,1.3-0.1,1.9-0.2c-3.2-0.2-4.4-0.1-5.7-0.1c0,0,0.1-0.1,0.3-0.1
	c-1.9,0.1-2.8,0.1-3.2,0c-8.6,0.2-10.1,0.3-11.9,0c-5.6-0.1-6.2,0-7.8-0.1c0.3-0.3,2.1,0,2.2-0.2c-0.5,0.1-0.9,0-1.3,0
	c0.2-0.1,0.9,0,1.1,0v-0.1c0.1,0,0.3,0,0.6,0c0.4,0.4,1.3,0.1,1,0.1c1,0.2,0.6-0.1,1.1,0c0.4,0.3,1.3-0.1,1.3,0.1
	c0-0.1,0.2-0.1,0.3-0.1l0,0c6.2,0,10.6-0.1,14.3,0.1c4-0.2,5,0.1,6.2,0c-0.1-0.1,0.5,0,0.5-0.1c3.4,0.2,6.7,0.1,10,0.1
	c-6.4-0.2-11.4,0-14.5-0.2c-0.5,0.1-1.3,0-1.9-0.1v0.1c-0.8-0.1-1.8-0.1-2.6,0c0.1-0.1,0.2-0.1,0.2-0.2c-3.4,0.4-5.3,0.1-5.2,0.2
	c-5.3-0.1-10.3-0.1-13.2-0.3c-1.7,0.2-3.9,0-5.4-0.1v0.1c-1.3-0.2-3.3-0.2-4.7-0.1c0,0,0.1,0,0.2,0c-2.3,0-1.7,0-2.3,0
	c-5.7-0.3-5.8-0.2-6.7-0.3c4.8-0.4,5.4,0,7.6-0.1c-2.1-0.2-1.8-0.2-2.8-0.2c1.8-0.1,0.9,0.1,1.7-0.1c-0.6,0-1.3,0-2.1-0.1
	c0.1-0.1,1-0.1,1.4,0l-0.2-0.1c0.5,0,0.4,0.1,0.8,0.1c-0.2-0.1-0.5-0.2-0.9-0.2c1.9,0.2,1.7,0,2.8,0c-1.9-0.1-1.8,0-2.3-0.1
	c-0.8,0-0.6,0.2-1.9,0.1c2.2-0.3,2.5-0.1,2.8-0.2c-0.6,0-1.2-0.1-1.8-0.1c-0.1,0-0.2,0-0.3,0c0.9,0.2-0.8,0-0.3,0
	c-1.8,0-1-0.2-1.8-0.1c0-0.1,0.3-0.1,0.3-0.1s-0.1,0-0.2,0c0.2,0,0.2,0,0.2,0c0.7,0,1.4,0.1,2.1,0.1c0.7,0,1.4,0.1,1.8,0.1
	c-0.1,0-0.1,0-0.1,0c7.5,0.3,15.2,0,21.2,0.2c0-0.1-0.8-0.2-0.1-0.2c0.1-0.6,2.3,0,2.1-0.3c0.5,0,0.8,0,1.1,0c0,0,0.1,0,0.2-0.1
	c-0.8-0.1-0.5,0-0.7-0.2c5.3,0.1,13.3,0.4,10.6-0.3c0.7-0.5,1.4,0.2,1.2-0.2c0.9,0,1.4-0.2,2-0.2c-2.7,0.3-2.4,0-1.5-0.2
	c-2.2-0.2-2.3,0.2-2.9-0.2C149.7,8,144,7.7,140.1,7.7c4-0.2,6.3,0.1,8.4-0.1c-2.1-0.1-1.7-0.2-2.8-0.3v0.1c-0.7-0.1-0.5,0-0.5-0.2
	c-1.8-0.1-1.4,0.2-1.8,0c-1.3-0.1-0.6,0-0.8-0.2c0.7,0,1.2-0.1,2.2-0.4c-0.1-0.1-1.3,0-1.5-0.1c0.6-0.1,1.5,0,2.2,0
	c-0.2-0.1-0.5-0.1-0.9-0.1c0,0,0.1,0,0.2,0c0,0-0.2,0-0.3,0c0.9,0,1.1-0.1,2.1-0.1c-0.1-0.3,1,0,1.1-0.2c-2.8-0.1-3.3,0-4.1-0.1
	c-5.2-0.3-7.4,0.3-10.8,0l0.2,0.1c-6.5-0.5-3.8-0.6-5.9-0.4c-0.4,0-0.7,0-1.3,0c0.6-0.4,0.6,0.1,0.9-0.1c-1.2-0.3-1.1-0.2-0.8-0.1
	c0,0.2-0.8,0.2-1.1,0.1c0,0,0.2,0,0.3,0c-0.2-0.1-0.2-0.2-0.5-0.2c-0.9,0.5-1.5,0.2-1.7,0.2c1.8-0.1-0.4-0.1-0.2-0.2
	c-1.6,0-3.5,0.1-3.2,0c-0.1-0.1-1,0.2-1.3,0c-0.2,0.1-0.4-0.1-0.4,0.1c-0.3-0.1-0.6-0.1-0.9-0.2c0,0-0.1,0.1-0.5,0.1
	c0.5-0.1-0.5-0.1-0.5,0c-0.1,0-0.5-0.1-0.2-0.1c-0.7,0-1.3,0-1.7,0l0,0c0.1,0,0.3,0,0.3,0c-0.2,0.1-0.3,0-0.4,0
	c-1.4-0.1-1.1-0.1-1.9-0.2c0.5,0,1.2,0,2,0c0,0.1-0.6,0-0.6,0.1c0.2-0.1,0.3,0,0.4,0s0.1,0,0.2,0c0.2-0.1,0.8-0.2,1.5-0.2
	c-2.5,0-2.2,0-2.9-0.3c-1.9-0.2-3.9,0.1-4.5-0.1c0,0,0.3,0,0.4,0c-0.3,0-0.2,0-0.3-0.1c0,0-0.5,0-0.2,0c-0.3,0-0.8,0.2-1.1,0.1
	c0.1,0.2-0.2,0.1-0.3,0.1c0.1-0.1,0.1-0.1,0.2-0.1c-3.4-0.1-4.2,0.1-4.6,0c-2.4,0.1-3.7-0.1-3.9,0.1c-1.2-0.4-1.9,0.1-1.8-0.3
	c-0.5,0.2-1.4,0-1.3,0.1c-0.6-0.2-0.4,0-0.7-0.2c-0.2,0,0,0.1,0,0.1c-0.7-0.1-1.6,0-2.3-0.1c0.1,0.1,0.1,0.1-0.1,0.1
	c0-0.1-0.6-0.1-0.3-0.2c-0.8-0.1-0.5,0-0.7-0.2c0.5,0,1.2,0,0.9,0.4c2-0.1,1,0.2,2,0.1c-0.9-0.2,4-0.1,2.8,0
	c2.5-0.1,1.5-0.2,2.9-0.1c-0.4,0.1-0.6,0.1-1.1,0.1c0.4,0.1,1.1-0.1,1.5,0c-0.1-0.1-0.1-0.1-0.3-0.1c0.9-0.1,1-0.1,1.3-0.1l0,0
	c10.3,0.2,13,0.2,15,0.2c-0.2-0.1,2.9,0.2,3.1,0.1c-0.6-0.2,0.5,0.2,0.5,0c0-0.1-0.2-0.1-0.4-0.1c0.4-0.1,1,0.1,1.2,0
	c0,0.1,0,0.1-0.1,0.1c2.1,0,2.3-0.1,2.9,0.2c-0.3-0.2,1.6-0.1,2.1-0.1c-0.1-0.2-1.1-0.1-1.2-0.2c6.9,0.4,6.7,0,9.4,0.2
	c1,0,1.5,0,1.7,0c0.3-0.2,1-0.2,1.5-0.2c-0.1-0.1-0.6-0.1-0.6-0.2c-0.7,0.1-1.2,0-2.1,0c-5,0-3.6-0.1-6.6-0.1c-2.2,0.2-3.6,0-5.4,0
	c0.1,0,0.2,0.1,0.2,0.1c-0.4,0-0.8-0.1-1.1-0.2c0,0-1.1,0.1-1.2-0.1c-2.5,0.2-3.6-0.2-4.8,0.1c-0.1-0.1-0.3-0.1-0.3,0
	c-0.2-0.1-0.7,0-0.7-0.1c-8.2-0.1-8.5-0.1-10.9-0.4c0.5-0.3-5.1-0.3-6.2-0.3c-0.6-0.1-1.7-0.1-1.8,0.1c-0.2-0.2-0.7,0-1.2-0.1
	c0.1,0.3-1,0.2-1.4,0.1C93,3.2,93.6,3.3,94,3.3c-2.6-0.2-4.3-0.1-4.7-0.2c-1.9,0-5.3-0.4-6.5-0.2C83.3,3,82.7,3,82.4,3
	c0.1,0,0.3,0,0.2,0.1c0.5,0,0.8-0.1,0.8,0.1c0.4-0.2,0.8,0.1,1.4,0.1c-1.2,0-1,0-1.5,0c0,0.1,0.3,0.1,0.4,0.1c-0.2,0.1-0.7,0-0.9,0
	c0,0,0.1,0,0.2,0c-0.2-0.1-0.9-0.1-0.6,0c-0.9-0.2-0.7,0-0.7,0c-0.2,0-0.2-0.1,0-0.1c-0.3,0-0.4,0.1-0.9,0.1c0.6-0.2-0.6,0.1-0.8,0
	c0.1,0,0.1-0.1,0.1-0.1c-2.5,0.1-2,0-2.7-0.1c-0.4,0.3-0.5,0-0.6,0.1c0.1-0.1,0.2-0.1,0.3-0.1c-0.1,0-0.4,0.1-0.6,0
	C76.1,3.8,73.8,2.8,73,3c-0.3,0.1-1.5,0.1-1.9,0c-0.4,0.2-1.2,0.1-1.1,0.2c-0.3-0.2-0.5,0-0.3,0.1c-0.9-0.1-2.5-0.2-2.1,0
	c-0.3-0.2-0.5,0.2-0.5,0.1c0.4,0,0.3,0.1,0.7,0.1c-0.5,0.1-0.9,0-1.5,0c0.1-0.1,0.3-0.1,0.7-0.1c-0.2-0.1-0.4-0.1-0.7-0.1
	c0,0-0.1,0-0.1,0.1c-1.8,0-3.1-0.1-3.9-0.2c0.4,0.1,0.2,0.1,0.6,0.2h-0.2c0.1,0.3-1,0.2-1.6,0.1c0.2,0.1,0.6,0.2,0.9,0.2
	c-0.2,0-0.8,0.1-0.7-0.1c-1,0-1.4,0.2-2,0.1c-2.5,0.2-3.7-0.2-4.9,0c0.2,0.1,0.3,0,0.5,0c-0.1,0.1-0.8,0.1-1.2,0.1
	c-2.3-0.1-2,0.1-2-0.1c-0.3-0.2-0.7,0-1.2-0.1c-3.8,0.3-6.3-0.3-8.2,0.1c-1.5-0.3-1.9-0.5-2.3-0.4c0.1,0.2,0.6,0.1,0.9,0.2
	c-0.4,0.1-0.9,0.2-1.3,0.1c0.1,0,0.1,0.1,0.1,0.1c-4.1-0.3-5.4-0.1-6.9-0.2c-2.1,0.1-3.5,0-5.5,0.1c0,0,0.2,0,0.3,0
	c-0.1,0.1-0.3,0-0.5,0c0-0.1,0.1-0.1,0.2-0.1c-1.5,0-0.5,0.2-1.5,0.1c0.6,0.4,0,0.1-0.2,0.1C24.3,4,25.3,4,25.4,4.1
	c-2.7-0.1-5-0.3-4.9-0.2S20.9,4,21,4c0,0-0.2,0-0.2,0.1c-3.3,0.1-4.9,0-6,0.1c6.3,0,11.9-0.3,14.6-0.1C29.1,3.9,30.5,4,30.8,4
	c0,0.1-0.4,0.1-0.7,0.1c1,0.2,2.3-0.1,3.5,0c0-0.1,0.3,0,0.3-0.1c5.4,0.1,3.9,0,6.3,0.1c-0.1,0-0.1,0-0.1,0.1c-0.7,0-0.5,0-0.9,0
	c0.2,0,0.5,0,0.6-0.1c-1,0-0.5,0.1-1.2,0.2c0.2,0,0.3,0.1,0.6,0.1c0,0.2-2.2,0.1-1.2,0.1c-0.3-0.1-1.2,0-1-0.1
	c-1.8,0.2-1.8-0.1-2.3-0.1v0.1c-0.3,0-0.8-0.2-0.9,0c1.1,0.2-5.6,0.1-5.9,0.1v0.1c-0.3-0.1-0.6,0-1,0c0.5,0,0.2,0.1,0.8,0.1
	c-0.5,0-1.1,0-1.5,0.1c0-0.1,0-0.1,0.1-0.1c-1.5,0.2-1.4,0-1.3,0c-0.7,0-1.4,0-2.2,0c0,0.1,0.4,0.1,0.2,0.2c2.1,0,1.2-0.1,2.2,0
	c-2.3,0-2.5,0-1.9,0.2c0.1,0,0.2-0.1,0.2-0.1c0.2,0,0.9,0,0.2,0.2c2.2-0.1,3.4,0.2,3.9,0.1c0-0.1-0.1-0.1-0.1-0.1
	c1.2,0.2,0.7-0.1,1.2,0.2c0.6,0,1.7,0,2.4,0.1c2.2-0.2,2.5,0,3.6,0l-0.1-0.1c3.1,0.1,7.7-0.2,7.1,0.4C43.5,6,43,6,42.4,6
	c-6.2-0.1-6.6-0.1-8.6,0c-3,0.4-6.3-0.2-7.3,0.1c-0.2,0-0.3,0-0.3-0.1c-0.4,0.1-1.6,0-1.5,0.2c-0.2,0-0.3-0.1-0.7-0.1
	c0.1,0.1,0,0.1,0,0.2c0.4,0,0.4,0,0.6,0.1c-1.5,0.2-1.5,0.2-1.6,0c-3.1,0.4-3.3,0.1-3.4,0.4c0-0.2,0,0-0.2,0c0.8,0,1.3-0.3,2-0.1
	c3.6-0.3,2.4-0.2,3.4-0.2c-0.1,0,0.1,0,0.1-0.1c6.2-0.3,6-0.1,8.1-0.1c-0.1,0.2-0.4,0.3,0.1,0.5c0,0.1-0.1,0.1-0.1,0.1
	c-0.3-0.1-0.8-0.1-1,0c0.5,0,0.9,0.1,1.4,0.1c0,0.1,0.3,0.1,0.6,0.2c-0.1,0-0.4,0.1-0.6,0.1c0.5,0.1,0.7,0,1,0.1
	c-2.4-0.1-3.3,0.2-3.3,0c-2.5,0.1-2,0-2.7-0.1c1.2-0.2,1-0.2,0.8-0.3c-0.1,0.1-0.1,0.1-0.2,0.1l0,0l0,0c-0.6,0.2-0.3,0.2-0.8,0.1
	c0.2-0.1,0.4-0.1,0.8-0.1l0,0c-1.3,0,0.2-0.2,0.4-0.2c-5.1-0.1-4.5,0.5-2.6,0.6c-2.2,0-1.7-0.2-1.6,0.1c0.3,0,0.6,0,0.7,0.1
	c-0.2,0-0.8,0.1-0.8-0.1c-0.5,0.1-0.9,0.1-1.3,0.1c0,0.1,0.3,0.1,0.4,0.2C24.1,8,24,8,23.8,8c0.4,0,0.4,0.1,0.7,0.2
	c-0.5,0.3,0.1,0.1-0.7,0.2c-2.4,0.2-1.7,0.1-2-0.3c-2,0.1-1.7,0-2.5,0c0.2,0.2-1.2-0.3-2.2-0.2C20,7.7,21,7.9,22,7.8
	C16.1,7.5,4.3,7,9.4,7.8C7.1,8.2,6.8,8.1,5.9,8.3C6,8.4,6.2,8.5,6.5,8.5C6.1,8.5,5.8,8.6,5,8.6c0.4,0-0.1,0.1,0.1,0.1
	c0.1,0,0.1,0,0.2,0c-0.1,0-0.2,0-0.2,0c-1.3-0.1-1.2,0-1.5,0.2C3.1,8.8,3.4,8.9,3.3,9C3.9,9,4,8.7,4.7,8.7C3.9,8.8,4.3,8.8,4.5,8.9
	c-2.2,0.5-1.6,0-2.3,0.6c0.1,0,0.3,0,0.4,0c-0.2,0-0.3,0.1,0.1,0.1C2.5,9.8,2.1,9.9,1.8,10c-1.6,0.9,1.1,0.7,0.9,0.9
	c3.5,0.5,2.4,0.9,4.1,0.6c1.3,0.1,2-0.4,3.5-0.2c-0.4,0.2-1.5,0.2-1.6,0.5C9.6,11.9,8.2,12,9.1,12c-0.3,0.2,0.7,0.2,0.5,0.5
	c0.4,0,0.7,0,0.7,0.1c3.5,0,2.2-0.5,3.7-0.5C13.9,12,13.8,12,13.7,12c3.7-0.5,3.1-0.2,3.2-0.1c-0.5-0.1-0.5,0.1-0.6,0.1
	c0.5,0,0.1,0.1,0.3,0.2c-1.1-0.4-1.1,0.2-0.9,0.1c-0.1,0-0.1,0.1-0.1,0.1c-0.2,0-0.1,0-0.4,0l-0.1,0.1c0.2,0.1-0.1,0.2-0.6,0.2
	c0.3,0.2-0.2,0.3-0.5,0.3c0.1,0,0.2,0,0.3,0c-2.1,0.3-3,1-2,1c-1.6,0.7-0.8,0.4-1.5,0.8c0,0.1,0.2,0.1,0.4,0.1
	c0,0.1-0.2,0.1-0.4,0.1c0.3,0.1-0.4,0.3-0.2,0.4C6,16.9,7.7,17.5,6.4,17.6z"/>
</svg>
